<svg width="100%" height="auto" viewBox="0 0 43 25" fill="none" xmlns="http://www.w3.org/2000/svg">
<mask id="mask0_914_5251" style="mask-type:alpha" maskUnits="userSpaceOnUse" x="0" y="0" width="43" height="25">
<rect width="43" height="25" rx="5" fill="#D9D9D9"/>
</mask>
<g mask="url(#mask0_914_5251)">
<path d="M42.8555 0H0V25H42.8555V0Z" fill="#3D9635"/>
<path d="M12.1269 7.0871C12.28 6.91107 12.3335 7.6611 12.4216 7.96342C12.5249 8.38053 12.6741 8.21981 12.7086 7.99403C12.7353 7.79504 12.7889 7.56926 12.7889 7.56926C12.8578 7.12919 13.0989 6.86515 13.1945 6.8728C13.3132 6.85367 13.3706 6.88428 13.4203 7.00673C13.4816 7.13302 13.5007 7.63814 13.4318 7.95194C13.4165 8.19685 13.7188 8.4762 13.7035 7.98255C13.6538 7.61136 13.6231 7.29757 13.5198 6.93403C13.493 6.72738 13.4969 6.50543 13.5045 6.28348C13.5504 6.16868 13.6844 6.11128 13.7762 6.23374C13.9255 6.35619 13.9522 6.83453 13.979 7.06031C13.979 7.24017 13.9943 7.64197 14.0823 7.91367C14.1436 8.04378 14.2278 8.07056 14.266 7.95959C14.312 7.95959 14.2086 7.83331 14.1398 7.63432C14.0441 7.41619 13.9829 6.93403 14.1168 6.70442C14.1665 6.62789 14.266 6.62789 14.3387 6.70442C14.4114 6.83453 14.5033 6.89959 14.5339 7.09092C14.5798 7.22869 14.6372 7.28609 14.5607 7.79121C14.5607 7.83713 14.8553 8.05908 14.8553 8.05908C14.9434 8.15475 15.0543 8.18154 15.1615 8.12031C15.1883 7.96342 15.127 7.78739 15.085 7.68024C14.8821 7.41237 14.7482 7.07944 14.7826 6.80392C14.8515 6.56284 15.0467 6.53605 15.1768 6.65085C15.3337 6.73886 15.4332 6.93785 15.4982 7.1445C15.4753 7.24017 15.3758 7.24782 15.3069 7.1445C15.2916 7.19424 15.3796 7.32053 15.3605 7.37027C15.4753 7.64197 15.5059 7.91367 15.5289 8.18154C15.525 8.46854 15.3031 8.64457 14.9281 8.75172C14.6831 8.8053 14.6143 8.66753 14.4574 8.55656C14.3579 8.49916 14.2163 8.51064 14.2163 8.62161C14.1398 8.73259 14.2699 9.22241 14.2546 9.80407C14.2354 10.7952 13.8719 10.688 13.8719 10.688C13.8489 10.1638 13.8221 9.6357 13.7992 9.11143C13.7379 8.95836 13.6308 8.95454 13.4739 8.96602C13.3208 8.90479 13.1257 8.8206 13.1333 8.52212V7.60753C13.1257 7.4889 13.0491 7.4889 13.0109 7.58457C12.7927 7.77973 13.1257 8.85504 12.5249 8.79382C12.0274 8.69049 12.081 7.6611 12.1231 7.07562L12.1269 7.0871ZM13.4318 9.23006C12.9382 9.24154 12.2149 9.88061 12.1958 10.2327C12.7162 9.9801 13.229 9.73902 13.7571 9.4788C13.6729 9.35252 13.7533 9.23772 13.4318 9.22624V9.23006ZM12.9573 11.5758C12.9573 11.3577 12.9458 11.2927 12.9841 11.0631C13.007 10.7761 13.118 10.6153 13.2022 10.6766C13.2405 10.7034 13.2711 10.7799 13.2864 10.9062C13.294 11.1128 13.3208 11.461 13.4088 11.6179C13.7609 12.2838 15.8235 12.1384 15.8886 10.026C15.8809 9.9801 15.8656 9.95331 15.8465 9.94566C15.8044 9.93035 15.7431 9.99541 15.724 10.0605C15.4141 12.3948 12.6626 12.0963 13.4892 9.97245C13.7686 9.78111 13.6461 10.6115 13.7571 10.8296C13.9408 11.1779 14.2775 11.1319 14.7061 10.9406C15.3987 10.5732 15.437 10.0949 15.4026 10.0375C15.349 10.0031 15.2265 10.1485 15.0811 10.2097C14.9013 10.2556 14.6946 10.2786 14.5224 10.0719C14.4688 9.89591 14.4842 9.67396 14.5224 9.47115C14.5569 9.21476 14.8362 8.95071 15.0811 8.94688C15.4179 8.9354 15.4676 9.2071 15.6628 9.34104C15.7776 9.35252 15.8694 9.21093 15.8465 9.10378C15.6972 8.18537 15.5977 7.4889 15.4447 6.57049C15.4064 6.35619 15.525 6.24522 15.6551 6.20695C15.6934 6.1993 15.7278 6.18016 15.7585 6.17634C15.7699 6.17634 15.7814 6.17634 15.7929 6.17634C15.7967 6.17634 15.8044 6.18016 15.8082 6.18399C15.8082 6.18399 15.8159 6.18782 15.8159 6.19164C15.8159 6.19164 15.8197 6.19164 15.8235 6.19547C15.8273 6.19547 15.835 6.20695 15.8426 6.2146C15.9613 6.27583 16.1717 6.91107 16.2751 7.22486C16.1794 7.33966 16.0914 7.26313 15.9881 7.26695C16.0684 7.86392 16.145 8.4341 16.2253 9.03107C16.4664 8.88948 16.5889 8.93158 16.5621 9.23006C16.5812 9.36017 16.7764 9.34486 16.8835 9.25685C17.0442 8.8053 17.3083 8.84739 17.3695 9.13439C17.3772 9.20328 17.4575 9.21858 17.5034 9.19562C17.5149 9.18797 17.5226 9.18032 17.5302 9.16883C17.5302 9.16501 17.5341 9.15735 17.5341 9.15353C17.5455 9.07699 17.557 9.00046 17.5685 8.92775C17.5685 8.91244 17.58 8.90096 17.5915 8.88948C17.6336 8.84356 17.7407 8.81295 17.8785 8.77086C17.8708 9.04255 17.8325 9.3066 17.7904 9.55916C17.7139 9.8232 17.3542 9.89209 17.1476 9.74284C17.0863 9.67779 16.9983 9.7084 16.9639 9.76198C16.8797 9.85765 16.5123 10.1064 16.2444 9.8232C16.2444 9.8232 16.2406 9.8232 16.2368 9.8232C16.1641 9.89209 16.3822 10.4278 16.1679 11.1434C15.7393 12.521 13.0759 13.2405 12.9688 11.5682L12.9573 11.5758ZM15.1615 9.54768C15.1309 9.47115 15.0658 9.45201 15.0161 9.45584C14.9816 9.45967 14.9472 9.47497 14.9281 9.49411C14.9281 9.49793 14.9204 9.50559 14.9204 9.50941C14.8974 9.55151 14.8439 9.60891 14.8592 9.66631C14.8974 9.71606 14.9281 9.72754 14.9893 9.73136C15.0429 9.73136 15.1156 9.74284 15.1347 9.71606C15.1615 9.68162 15.1883 9.61656 15.1615 9.55533V9.54768ZM16.3975 7.81417V7.80652C16.4358 7.70703 17.205 7.17894 17.5034 6.86515C17.5723 6.80775 17.469 6.7006 17.3657 6.65468C17.2585 6.52457 17.2891 6.3141 17.4269 6.18399C17.4805 6.1572 17.5417 6.13807 17.6144 6.13424C17.6871 6.13041 17.7637 6.14189 17.8478 6.18016C17.9512 6.29496 18.0124 6.5437 17.8172 6.6585C17.779 6.69677 17.7751 6.73504 17.8172 6.76948C17.8593 6.80392 17.8938 6.82688 17.9359 6.86515C17.9359 6.86515 17.1514 7.7606 16.9868 7.82565C16.9333 7.85244 16.4549 7.85244 16.4128 7.82565L16.3975 7.81417ZM17.5264 6.55135C17.557 6.62024 17.6221 6.66233 17.6718 6.65085C17.7216 6.63554 17.7369 6.57432 17.7063 6.50926C17.6756 6.44803 17.6182 6.40211 17.5723 6.40594H17.5647C17.5149 6.41742 17.4996 6.47865 17.5302 6.54753L17.5264 6.55135ZM12.4751 11.8514C12.345 12.1154 12.2914 11.9356 12.28 11.7863C12.2608 11.507 12.2876 11.2506 12.3144 11.0478C12.345 10.8373 12.3144 10.9023 12.2455 10.9865C11.9509 11.4572 11.9279 12.1537 12.0886 12.3642C12.1766 12.4598 12.3182 12.5057 12.4216 12.4751C12.6091 12.3948 12.6856 12.0197 12.6435 11.882C12.5823 11.7863 12.5325 11.771 12.4713 11.8514H12.4751ZM21.908 6.53605C21.8774 6.38681 21.8659 6.28731 21.885 6.10363C21.9233 5.90081 22.1606 6.02327 22.2562 6.09215C22.4476 6.25287 22.4591 6.26435 22.6887 6.45951C22.7499 6.53222 22.792 6.58962 22.8264 6.6432C22.8035 6.50543 22.8035 6.35619 22.88 6.17634C23.0101 6.00031 23.0101 6.02709 23.0943 6.14572C23.3583 6.51691 23.5841 6.79244 23.6568 7.19807C23.6874 7.43533 23.4617 6.9876 23.5191 7.38941C23.542 7.4889 23.5803 7.81417 23.6109 8.20067C23.7946 8.47237 23.9476 8.7058 23.9897 8.78999C24.116 9.01959 24.5063 9.62422 24.7934 10.2365C24.8699 10.3398 24.8967 11.0669 24.7666 11.1281C24.4107 10.4202 24.051 9.77728 23.6798 9.16883C23.6874 9.31808 23.6951 9.45584 23.6989 9.57064C23.7027 9.85382 23.7754 10.8335 23.7219 11.3118C23.6415 11.66 23.4119 11.8973 23.2665 11.8896C23.3162 11.086 23.2971 10.1332 23.2474 9.36782C23.2244 9.01959 23.1861 8.66753 23.1364 8.31165C22.8149 7.82948 22.4858 7.36645 22.1414 6.90341C22.0687 6.80392 21.9233 6.63554 21.9004 6.53605H21.908ZM22.792 7.03352C22.8188 7.06414 22.88 7.14067 22.9565 7.24782C22.9374 7.16363 22.9221 7.08327 22.903 6.99908C22.8991 6.95699 22.8876 6.91872 22.88 6.88045C22.7958 6.90341 22.6198 6.83453 22.792 7.03735V7.03352ZM24.8852 11.3156C24.5561 11.66 24.0778 12.0848 23.5573 12.28C23.5037 12.3412 23.6951 12.6129 23.9476 12.6091C24.3686 12.5631 24.7398 12.3259 25.0842 11.7021C25.176 11.5567 25.3368 11.2467 25.3406 11.0057C25.375 9.5936 25.2717 8.49533 25.0612 7.4736C25.0459 7.37027 25.0536 7.25547 25.0727 7.22486C25.0995 7.19042 25.1913 7.22486 25.2411 7.1445C25.3138 7.07179 25.0497 6.46334 24.9005 6.22991C24.8469 6.12659 24.8278 6.05388 24.7398 6.24139C24.6479 6.39446 24.5867 6.6585 24.5905 6.90341C24.7934 8.29634 24.8546 9.50941 24.9847 10.9023C24.9962 11.0363 24.977 11.2314 24.8852 11.3118V11.3156ZM30.4225 7.46212C30.4072 7.36262 30.3651 7.13302 30.3804 7.1024C30.4072 7.03352 30.5449 7.11006 30.5947 7.0297C30.6674 6.95699 30.2388 6.40977 30.0895 6.17251C30.036 6.06919 30.0168 5.99648 29.9288 6.18399C29.837 6.33323 29.8025 6.60493 29.8408 6.84601C30.0628 8.35757 30.2311 9.81938 30.2656 11.1587C30.2464 11.285 30.2388 11.3539 30.1814 11.5146C30.0474 11.683 29.902 11.8973 29.7643 11.9968C29.6265 12.1001 29.3357 12.1958 29.24 12.2723C28.9377 12.4483 28.9377 12.6473 29.1826 12.655C29.6035 12.6052 30.101 12.5708 30.4454 12.0542C30.5373 11.9088 30.6444 11.5146 30.6521 11.2774C30.6827 9.8653 30.6329 8.48385 30.4225 7.46212ZM27.2386 8.96602C27.2386 8.77086 27.2616 8.51446 27.2731 8.35374C27.2769 8.29251 27.2922 8.22746 27.3496 8.20833C27.407 8.19302 27.5065 8.26956 27.5103 8.20833C27.4988 8.08587 27.4759 7.90219 27.407 7.818C27.3113 7.68024 27.0588 7.71085 27.0129 7.9328C27.0129 8.01316 27.0511 8.05526 27.0435 8.13179C27.032 8.17389 26.9861 8.20067 26.8866 8.15093C26.9019 8.13562 26.8177 8.02082 26.8177 8.02082C26.7373 7.97107 26.6264 8.02082 26.5575 8.06674C26.5192 8.13562 26.4924 8.25807 26.5345 8.38053C26.6493 8.59483 27.0473 8.96219 27.2386 8.96602ZM27.1047 7.06031C27.384 7.40471 27.6711 7.76825 27.9581 8.15093C28.0155 8.92392 28.0346 9.6357 28.0958 10.4125C28.0882 10.7416 27.9848 11.1855 27.8853 11.2276C27.8853 11.2276 27.7399 11.3118 27.6404 11.22C27.5677 11.1932 27.2807 10.7416 27.2807 10.7416C27.1353 10.6039 27.0358 10.646 26.9325 10.7416C26.6417 11.021 26.5154 11.5414 26.3164 11.9011C26.2666 11.9815 26.1212 12.0504 25.9643 11.8935C25.6238 11.4266 25.7386 10.7952 25.7539 10.7378C25.7539 10.7416 25.7539 10.7531 25.7462 10.7646C25.3903 11.1664 25.5472 11.8361 25.6276 11.9815C25.7462 12.2149 25.8419 12.368 26.0715 12.4828C26.2819 12.6397 26.4465 12.544 26.5345 12.433C26.745 12.2149 26.7488 11.6562 26.8483 11.5452C26.9172 11.3424 27.0932 11.3769 27.1774 11.4687C27.2578 11.5873 27.3573 11.6639 27.4759 11.7289C27.6711 11.9011 27.9083 11.9317 28.1379 11.7748C28.2948 11.6868 28.3981 11.572 28.4938 11.3462C28.5933 11.0822 28.5435 9.6931 28.5206 8.91627C28.6698 9.12291 28.8152 9.33721 28.9607 9.55151C29.0257 10.2288 29.0563 10.9023 29.0334 11.5414C29.0181 11.6715 29.4773 11.1626 29.4773 10.9215C29.4773 10.711 29.4773 10.5235 29.4773 10.3436C29.6992 10.6995 29.9173 11.0631 30.1202 11.4266C30.2464 11.3615 30.2043 10.6421 30.124 10.5426C29.9135 10.1867 29.6342 9.79642 29.4237 9.49793C29.3816 9.11909 29.3242 8.66753 29.2974 8.5336C29.2553 8.3193 29.2171 7.99786 29.1558 7.74529C29.1405 7.64962 29.0869 7.32818 29.1022 7.30139C29.129 7.22868 29.2209 7.30139 29.2668 7.22103C29.3357 7.1445 29.0295 6.34088 28.8688 6.11128C28.8152 6.00796 28.7081 6.0424 28.5818 6.21078C28.4632 6.31792 28.5091 6.57049 28.555 6.81157C28.6698 7.42002 28.777 8.03995 28.8573 8.65605C28.7043 8.43028 28.5168 8.15475 28.3331 7.89071C28.3178 7.82183 28.3101 7.77208 28.3101 7.77208C28.3101 7.7606 28.2833 7.27461 28.2642 7.1598C28.2604 7.11388 28.2489 7.09858 28.2986 7.1024C28.3522 7.14832 28.3599 7.14832 28.3905 7.16363C28.4441 7.17128 28.4938 7.07944 28.4594 6.99908C28.2948 6.69677 28.1341 6.39446 27.9695 6.09597C27.9313 6.05771 27.8815 6.01561 27.8165 6.10745C27.7552 6.16103 27.694 6.25287 27.694 6.37533C27.7093 6.58962 27.7476 6.80775 27.7629 7.02204C27.7667 7.04883 27.7744 7.07944 27.7782 7.10623C27.7552 7.07944 27.7361 7.05266 27.7246 7.04118C27.3075 6.60493 27.916 6.97229 27.6443 6.63172C27.4147 6.37915 27.3496 6.30262 27.1506 6.14955C27.0511 6.08832 26.9937 5.96587 26.9593 6.17251C26.944 6.35619 26.9325 6.56666 26.944 6.71973C26.944 6.80392 27.032 6.96464 27.1085 7.06031H27.1047ZM28.3713 18.4563C28.3675 18.9232 28.1877 18.9461 27.9581 18.992C27.8279 19.0112 27.7591 18.9155 27.694 18.8122C27.5907 18.8505 26.4848 18.8313 26.2858 18.8122C26.2437 18.8772 26.1901 18.9614 26.0677 18.9346C26.0677 18.9346 26.0562 18.9346 26.0523 18.9346C26.0523 18.9346 26.0447 18.9308 26.0447 18.927C25.9414 18.8581 25.7998 18.4869 25.9299 18.2573C24.0969 18.2573 17.6565 18.2726 16.2674 18.2726C15.5289 18.2611 14.9625 18.1463 14.5722 17.5723C14.6066 17.5723 16.4281 17.6412 17.006 17.6412C18.0354 17.6412 22.8379 17.6948 25.9682 17.6948C25.7768 17.5608 25.7692 17.2509 26.0638 17.1743H26.0677V17.1782C26.0791 17.2011 26.0944 17.2815 26.1174 17.3121L26.1251 17.3198H26.1404C26.1863 17.3159 26.2207 17.3274 26.2475 17.3465C26.3355 17.4231 26.2628 17.6374 26.2207 17.691C26.6684 17.7101 26.9631 17.7139 27.3611 17.7598C27.3611 17.7598 27.7055 17.7254 27.8241 17.7063C28.3446 17.6565 28.3675 18.4448 28.3675 18.4448L28.3713 18.4563ZM27.6137 18.3377C27.1583 18.3147 26.7297 18.3338 26.2743 18.3109C26.2054 18.3415 26.1978 18.4754 26.259 18.5481C26.458 18.5558 26.6417 18.5864 26.8407 18.5634C26.8407 18.5634 26.8407 18.5558 26.8407 18.552C26.8407 18.552 26.8407 18.5443 26.8407 18.5405C26.8407 18.5405 26.8407 18.5367 26.8407 18.5328C26.8407 18.5328 26.8407 18.529 26.8407 18.5252C26.8407 18.5252 26.8407 18.5252 26.8407 18.5214C26.9019 18.441 27.1544 18.4333 27.1889 18.5367C27.1889 18.5443 27.1889 18.552 27.1889 18.5558C27.3381 18.5596 27.4223 18.5634 27.5716 18.5673H27.5907C27.6366 18.5405 27.6749 18.4027 27.6022 18.3377H27.6137ZM18.6476 8.34226C18.8849 8.43793 19.038 7.98255 19.1375 7.48125C19.2063 7.34349 19.2561 7.32818 19.2905 7.40089C19.2829 8.06674 19.3403 8.21215 19.5086 8.41497C19.8913 8.70963 20.2051 8.45324 20.2319 8.43028C20.2549 8.40349 20.5304 8.13179 20.5304 8.13179C20.5954 8.06291 20.6835 8.05526 20.7791 8.12031C20.871 8.20067 20.8557 8.34609 21.0508 8.44558C21.2115 8.51064 21.5636 8.46089 21.644 8.32313C21.7549 8.13562 21.7817 8.07056 21.8315 7.99786C21.908 7.89454 22.0419 7.94428 22.0419 7.9749C22.0305 8.0323 21.9539 8.0897 22.0037 8.19685C22.0955 8.26573 22.1185 8.21981 22.1759 8.2045C22.3672 8.11266 22.5126 7.69172 22.5126 7.69172C22.5203 7.53482 22.4323 7.5463 22.3749 7.58074C22.3022 7.62666 22.2983 7.64197 22.2218 7.68789C22.1261 7.69937 21.9463 7.76443 21.8544 7.62284C21.7588 7.45446 21.7588 7.21721 21.6899 7.04883C21.6899 7.03352 21.5636 6.78096 21.6784 6.76182C21.7358 6.7733 21.8583 6.80775 21.8812 6.7006C21.9424 6.59728 21.7511 6.31027 21.621 6.16868C21.5062 6.0424 21.3493 6.02709 21.2001 6.15338C21.0929 6.25287 21.1082 6.36002 21.0891 6.46334C21.0623 6.58197 21.07 6.72738 21.1886 6.88428C21.2957 7.09092 21.4871 7.36262 21.422 7.73764C21.422 7.73764 21.311 7.91367 21.1159 7.89454C21.0355 7.8754 20.9016 7.84096 20.8289 7.32053C20.7753 6.92255 20.8403 6.3715 20.672 6.11128C20.6107 5.95439 20.5686 5.80132 20.4194 6.07301C20.3811 6.17634 20.2089 6.33706 20.3314 6.66616C20.4309 6.8728 20.473 7.21338 20.4271 7.59222C20.3582 7.69937 20.3429 7.73764 20.2472 7.84479C20.1171 7.98255 19.9793 7.94811 19.8722 7.89454C19.7727 7.82565 19.6923 7.79121 19.6464 7.57692C19.6541 7.23634 19.6732 6.67381 19.612 6.55518C19.5201 6.3715 19.3671 6.43655 19.302 6.49395C18.9882 6.78096 18.8351 7.26313 18.7395 7.6458C18.6515 7.92515 18.5596 7.84479 18.4946 7.73381C18.3377 7.58457 18.3262 6.4289 18.1349 6.62024C17.8287 7.49273 18.3109 8.44558 18.6438 8.35374L18.6476 8.34226ZM23.0943 10.3283C23.0216 10.4431 22.9183 10.711 22.9106 10.8909C22.3787 11.0631 21.8276 11.1358 21.2689 11.2047C21.0738 11.3041 20.9781 11.4343 21.0164 11.5797C21.0814 11.7366 21.4871 11.8973 21.5139 11.9126C21.5942 11.9623 21.6937 12.0848 21.4909 12.3297C20.6184 12.2914 19.9449 11.9203 19.7115 11.396C19.6388 11.3386 19.5622 11.396 19.5163 11.4649C19.1757 11.9049 18.839 12.2991 18.2611 12.5096C17.9167 12.5976 17.5608 12.456 17.3925 12.2302C17.2853 12.1078 17.2853 11.97 17.2471 11.9317C17.2471 11.9317 17.2471 11.9279 17.2394 11.9279C17.0519 12.0121 15.4447 12.6932 15.6475 12.3756C16.0378 11.9585 16.719 11.6486 17.3159 11.2353C17.358 11.0975 17.4384 10.6268 17.6718 10.4776C17.6756 10.5235 17.6336 10.7646 17.6374 10.8679C17.6374 10.9253 17.6374 10.9636 17.6374 10.9789C17.6374 10.9789 17.6374 10.9789 17.6374 10.9827C17.6871 10.9483 18.4065 10.3857 18.4601 10.2097C18.529 10.1102 18.4831 9.86913 18.4831 9.84999C18.3491 9.49793 18.1578 9.46732 18.0851 9.29129C18.0201 9.05786 18.0507 8.79382 18.1808 8.72111C18.2994 8.61396 18.441 8.62544 18.5673 8.74407C18.7127 8.878 18.8428 9.13439 18.8811 9.32573C18.8543 9.40227 18.6974 9.28364 18.6362 9.31042C18.7356 9.41374 18.7854 9.54003 18.8198 9.68544C18.9155 10.0872 18.8849 10.2441 18.7892 10.5044C18.4678 11.1817 18.0545 11.3845 17.6948 11.6371C17.6871 11.6639 17.6948 11.8169 17.8172 11.8973C17.867 11.947 18.0545 11.97 18.2726 11.9011C18.7012 11.6677 19.1451 11.2391 19.3632 10.7608C19.4283 10.3972 19.3403 10.0145 19.2446 9.67779C19.1068 9.35635 18.9423 8.90096 18.9385 8.878C18.9308 8.67519 18.9461 8.60248 19.038 8.50298C19.0915 8.46472 19.1145 8.43028 19.1375 8.41497L19.1451 8.40732H19.1566C19.1834 8.41114 19.2255 8.44941 19.3173 8.54125C19.5775 8.98515 19.7421 9.55916 19.7689 10.0681C19.7612 10.1676 19.8148 10.2365 19.8569 10.2518H19.8798C19.9066 9.95714 20.6184 9.54385 21.2766 9.48645C21.3761 9.46349 21.3263 9.27216 21.3416 9.17266C21.3034 8.80912 21.5445 8.4762 21.8889 8.44941C22.3557 8.51829 22.5088 8.76703 22.5203 9.14587C22.4705 9.87678 21.7128 9.99924 21.2842 10.0566C21.2575 10.0681 21.2383 10.0796 21.2268 10.0911V10.1064C21.2268 10.1064 21.2268 10.1064 21.2268 10.1102C21.2383 10.1179 21.2536 10.1255 21.2766 10.1332L23.0637 10.1408L23.1517 10.1944C23.1517 10.1944 23.1517 10.2059 23.1517 10.2097C23.1402 10.2212 23.1096 10.2288 23.0598 10.313L23.0943 10.3283ZM21.7128 9.11143C21.7128 9.15735 21.7549 9.21858 21.8238 9.26068C21.8965 9.30277 21.9769 9.3066 22.0113 9.27598C22.0152 9.27216 22.019 9.26833 22.0228 9.2645C22.0228 9.2645 22.0228 9.2645 22.0228 9.26068C22.0228 9.26068 22.0228 9.26068 22.0228 9.25685V9.2492C22.0305 9.20328 21.9845 9.14205 21.9157 9.09995C21.8659 9.07317 21.8162 9.05786 21.7741 9.06169C21.7549 9.06169 21.7396 9.06934 21.7281 9.08082C21.7281 9.08082 21.7205 9.08082 21.7205 9.08847V9.09613C21.7205 9.09995 21.7167 9.10761 21.7167 9.11143V9.11526L21.7128 9.11143ZM20.8824 10.6536C20.6299 10.6268 20.3352 10.623 20.1362 10.5694C20.1362 10.5694 20.1248 10.5694 20.1171 10.5694C19.9985 10.5771 19.9219 10.6651 19.9296 10.7646C19.9755 11.2047 20.3084 11.4075 20.4271 11.4955C20.4768 11.5184 20.5419 11.5644 20.5916 11.5567C20.5916 11.5567 20.5954 11.5567 20.5993 11.5567C20.5993 11.5567 20.6069 11.5567 20.6107 11.5491C20.6107 11.5491 20.6146 11.5452 20.6146 11.5414C20.6375 11.5108 20.6414 11.4381 20.6146 11.2965C20.6146 11.021 20.8021 10.9674 20.9934 10.9023C21.1886 10.8335 21.0853 10.6727 20.8748 10.6574L20.8824 10.6536ZM14.3808 6.61641C14.5875 6.71208 14.974 6.67381 14.9548 6.34088C14.9548 6.3141 14.9472 6.21078 14.9434 6.18782C14.9051 6.08832 14.7865 6.11511 14.7597 6.2146C14.752 6.24904 14.7712 6.30262 14.7444 6.31792C14.7291 6.33323 14.6602 6.32558 14.664 6.23374C14.664 6.20312 14.6449 6.17251 14.6296 6.15338C14.6181 6.14572 14.6066 6.14189 14.5837 6.14189C14.5569 6.14189 14.5569 6.14955 14.5416 6.17634C14.5339 6.1993 14.5262 6.22226 14.5262 6.25287C14.5224 6.28731 14.5109 6.29879 14.4842 6.30262C14.4574 6.30262 14.465 6.30262 14.4421 6.29114C14.4268 6.27966 14.4153 6.272 14.4153 6.24904C14.4153 6.22608 14.4076 6.18399 14.4 6.16486C14.3885 6.14955 14.3694 6.1419 14.3502 6.13807C14.2392 6.13807 14.2316 6.26818 14.2354 6.3141C14.2278 6.32175 14.2201 6.55518 14.377 6.61641H14.3808ZM20.4079 9.16883C20.6146 9.2645 21.1044 9.21093 20.9858 8.89331C20.9858 8.8627 20.9781 8.7632 20.9743 8.73641C20.9322 8.64075 20.8174 8.66371 20.7906 8.7632C20.7829 8.79764 20.8059 8.85122 20.7753 8.86652C20.76 8.88183 20.6911 8.87035 20.6949 8.78234C20.6949 8.75172 20.672 8.72111 20.6605 8.70197C20.649 8.69432 20.6414 8.69049 20.6146 8.69049C20.5878 8.69049 20.5878 8.70197 20.5725 8.72493C20.5648 8.7479 20.5572 8.77086 20.5572 8.80147C20.5533 8.83591 20.5419 8.84739 20.5151 8.85122C20.4883 8.85122 20.4959 8.85122 20.473 8.83974C20.4577 8.82443 20.4424 8.8206 20.4424 8.79382C20.4424 8.76703 20.4385 8.72876 20.4309 8.71346C20.4194 8.69815 20.4003 8.69049 20.3811 8.68667C20.2702 8.68667 20.2625 8.81678 20.2663 8.8627C20.2587 8.87418 20.251 9.09995 20.4079 9.16501V9.16883ZM23.9247 8.11266C24.1313 8.21215 24.5178 8.17006 24.4987 7.83713C24.4987 7.80652 24.491 7.70703 24.4872 7.68024C24.4451 7.58457 24.3303 7.60753 24.3035 7.70703C24.2959 7.74147 24.3188 7.79504 24.2882 7.81035C24.2729 7.82565 24.2079 7.818 24.2079 7.72616C24.2079 7.69937 24.1849 7.66493 24.1734 7.6458C24.1619 7.63814 24.1505 7.63432 24.1275 7.63432C24.1007 7.63432 24.1007 7.64197 24.0816 7.66876C24.0739 7.69555 24.0663 7.71851 24.0663 7.74529C24.0663 7.77973 24.051 7.79121 24.028 7.79121C24.0012 7.79121 24.0089 7.79504 23.9859 7.78356C23.9744 7.76825 23.9553 7.76443 23.9553 7.73764C23.9553 7.71085 23.9515 7.67259 23.9438 7.65728C23.9323 7.64197 23.9132 7.63814 23.8941 7.63049C23.7831 7.63049 23.7716 7.7606 23.7793 7.80652C23.7716 7.818 23.764 8.0476 23.9209 8.10883L23.9247 8.11266ZM24.0625 6.82688C24.1352 7.03352 24.005 7.22868 24.0816 7.25547C24.1505 7.28609 24.25 7.045 24.2882 6.81923C24.3303 6.63554 24.2002 6.26435 24.0165 6.18782C23.9017 6.16103 23.7448 6.22608 23.7946 6.37915C23.7678 6.44803 24.0204 6.69294 24.0625 6.82688ZM25.9605 11.6371C26.1059 11.6371 26.2666 11.308 26.3394 10.9827C26.3776 10.535 26.3126 10.2595 26.3011 9.99923C26.2896 9.73519 26.0026 7.59988 25.9452 7.40089C25.8763 7.02587 26.2246 7.35114 26.1863 7.13302C26.0638 6.85367 25.7653 6.45186 25.6697 6.2146C25.6123 6.11128 25.6391 6.01944 25.509 6.18782C25.3942 6.57049 25.3521 6.88428 25.398 7.12536C25.7003 8.70197 26.0103 10.1408 25.9605 11.6409V11.6371ZM29.527 7.41619C29.5615 7.51569 29.4773 7.84861 29.5461 7.87923C29.6112 7.91367 29.6992 7.64962 29.7337 7.40471C29.7528 7.27078 29.6533 6.80392 29.4849 6.71973C29.3816 6.68912 29.2362 6.76182 29.2859 6.92637C29.2591 7.00673 29.4926 7.27078 29.527 7.41619ZM17.0595 10.9904C17.1208 11.0133 17.205 10.8182 17.2394 10.6421C17.2585 10.5426 17.1629 10.1982 17.0021 10.137C16.9026 10.1179 16.7687 10.1408 16.8108 10.2901C16.807 10.3704 17.0289 10.4661 17.0442 10.6498C17.0787 10.7263 16.9945 10.9674 17.0634 10.9942L17.0595 10.9904ZM12.7315 6.6011C12.7621 6.67764 12.7009 6.93403 12.766 6.95699C12.8272 6.98377 12.9114 6.78096 12.942 6.59728C12.9573 6.49395 12.942 6.14572 12.7086 6.07301C12.6129 6.05005 12.4751 6.10745 12.5172 6.22991C12.4943 6.28731 12.6932 6.49013 12.7277 6.6011H12.7315ZM17.3886 7.71851C17.2088 7.818 17.1361 8.10883 17.2509 8.28103C17.358 8.43028 17.5264 8.3767 17.5455 8.3767C17.7254 8.39966 17.8325 8.04378 17.8325 8.04378C17.8325 8.04378 17.8364 7.94428 17.6259 8.13179C17.5379 8.1471 17.5264 8.11266 17.5034 8.06291C17.4843 7.97107 17.4881 7.87923 17.5302 7.78356C17.5647 7.69555 17.492 7.65345 17.3925 7.71468L17.3886 7.71851ZM18.7586 6.62024C18.8275 6.57431 18.8466 6.53987 18.8696 6.45569C18.8964 6.31792 18.7242 6.52074 18.7012 6.36767C18.6629 6.22608 18.7777 6.16868 18.8811 6.02327C18.8811 5.93143 18.8811 5.86254 18.751 5.93908C18.6591 6.00031 18.4793 6.19164 18.4716 6.40594C18.464 6.52839 18.441 6.52839 18.5214 6.60493C18.5788 6.68912 18.6362 6.68146 18.7548 6.62024H18.7586ZM19.9946 6.69677C20.1133 6.37533 20.1133 6.24139 20.1209 6.10745C20.0865 5.90081 19.9449 5.90846 19.8531 6.13807C19.8148 6.22226 19.765 6.67764 19.7727 6.67764C19.7421 6.81157 19.9143 6.86897 19.9946 6.69677ZM27.7591 8.96219C27.7591 8.96219 26.8062 9.6357 26.7833 9.66248C26.6876 9.74667 26.7373 10.0452 26.7833 10.0107C26.8521 10.0375 27.8088 9.38696 27.7897 9.31042C27.8356 9.31425 27.8547 8.93158 27.7591 8.96602V8.96219ZM27.6404 10.799C27.7055 10.8335 27.8739 10.6268 27.8662 10.3666C27.8853 10.2327 27.8203 9.73902 27.6481 9.65483C27.5448 9.62804 27.407 9.71223 27.4568 9.87678C27.4338 9.95331 27.5754 10.225 27.6137 10.3704C27.6481 10.4737 27.5716 10.7646 27.6404 10.7952V10.799ZM22.2448 12.2226C22.2448 12.2226 22.3251 12.2991 22.4208 12.2417C22.6198 12.1652 22.7461 12.0925 23.0254 12.0312C23.0981 12.0312 23.0943 11.8322 22.9795 11.8246C22.8264 11.8322 22.6887 11.8399 22.5356 11.9623C22.4437 11.9815 22.4284 11.9279 22.4055 11.8782C22.3825 11.7519 22.4552 11.6639 22.4399 11.5682C22.4476 11.5758 22.3519 11.4878 22.2562 11.5376C22.2562 11.5376 22.0496 11.6753 21.9807 11.7748C21.9386 11.8054 21.9424 11.8322 21.9578 11.882C21.9884 11.9547 22.0419 11.9356 22.107 11.8973C22.1912 11.8858 22.2294 11.9394 22.2256 12.0427C22.1874 12.169 22.2448 12.2149 22.2448 12.2226ZM29.1443 12.1728C29.1022 12.1269 29.0181 12.1537 28.9568 12.146C28.9262 12.146 28.8382 12.1345 28.8803 12.0504C28.9186 12.0006 28.93 11.9662 28.9568 11.9049C28.9836 11.8437 28.9568 11.8016 28.8612 11.771C28.7578 11.7519 28.7157 11.7634 28.6048 11.771C28.5435 11.7825 28.5244 11.8093 28.5129 11.8858C28.5168 11.9968 28.5856 11.993 28.6583 12.0389C28.6966 12.0886 28.7234 12.1384 28.6583 12.2264C28.5895 12.2876 28.5435 12.3182 28.4785 12.3795C28.4479 12.433 28.4249 12.5134 28.5244 12.5402C28.7043 12.5899 29.1137 12.3221 29.1137 12.3182C29.1826 12.2685 29.1596 12.1728 29.1558 12.1728H29.1443Z" fill="white"/>
</g>
</svg>
