<svg width="100%" height="auto" viewBox="0 0 43 25" fill="none" xmlns="http://www.w3.org/2000/svg">
<mask id="mask0_914_5268" style="mask-type:alpha" maskUnits="userSpaceOnUse" x="0" y="0" width="43" height="25">
<rect width="43" height="25" rx="5" fill="#D9D9D9"/>
</mask>
<g mask="url(#mask0_914_5268)">
<path d="M43 0H0V25H43V0Z" fill="#CB1D23"/>
<path d="M9.7181 5.00995L7.59095 6.55236L8.39727 9.04776L6.26627 7.50919L4.13528 9.04394L4.94544 6.54853L2.82213 5.0023H5.45227L6.27011 2.50689L7.08795 4.99847L9.7181 5.00612V5.00995ZM12.9741 10.0237L12.3559 10.7547L11.469 10.3988L11.972 11.2064L11.3615 11.9374L12.2868 11.7116L12.7936 12.5153L12.8628 11.5661L13.7881 11.3327L12.9012 10.9729L12.9664 10.0237H12.9741ZM14.748 5.3391L14.8824 6.28062L15.3316 5.44244L16.2762 5.60701L15.6119 4.9181L16.0612 4.07609L15.1973 4.49326L14.533 3.80818L14.6635 4.75352L13.8035 5.1707L14.7442 5.3391H14.748ZM16.3031 8.4086H15.347L15.0475 7.4977L14.7519 8.40478H13.7958L14.5676 8.96739L14.2719 9.87829L15.0475 9.3195L15.8231 9.87829L15.5313 8.96739L16.3031 8.4086ZM12.2676 2.9432L12.7322 3.77756L12.8512 2.83221L13.7881 2.6485L12.9242 2.2428L13.0394 1.29746L12.3866 1.99403L11.5189 1.59216L11.9796 2.42652L11.3269 3.12309L12.2676 2.9432Z" fill="#F7DE29"/>
</g>
</svg>
