<svg width="32" height="31" viewBox="0 0 32 31" fill="none" xmlns="http://www.w3.org/2000/svg">
<path d="M26.3375 13.375C26.3375 20.4062 16.1 26.9688 16.1 26.9688C16.1 26.9688 5.86255 20.4062 5.86255 13.375C5.86255 10.7643 6.94114 8.26048 8.86104 6.41442C10.7809 4.56836 13.3849 3.53125 16.1 3.53125C18.8152 3.53125 21.4192 4.56836 23.3391 6.41442C25.259 8.26048 26.3375 10.7643 26.3375 13.375Z" stroke="black" stroke-width="2" stroke-linecap="round" stroke-linejoin="round"/>
<path d="M16.1001 15.7188C17.4463 15.7188 18.5376 14.6694 18.5376 13.375C18.5376 12.0806 17.4463 11.0312 16.1001 11.0312C14.7539 11.0312 13.6626 12.0806 13.6626 13.375C13.6626 14.6694 14.7539 15.7188 16.1001 15.7188Z" fill="black" stroke="black" stroke-width="2" stroke-linecap="round" stroke-linejoin="round"/>
</svg>
