<svg width="31" height="31" viewBox="0 0 31 31" fill="none" xmlns="http://www.w3.org/2000/svg">
<path d="M15.5001 2.63569C8.35368 2.63569 2.38582 8.61426 2.38582 15.7543C2.38857 18.3389 3.1525 20.8654 4.58225 23.0185L2.37939 28.8793L9.74868 27.5464C11.5401 28.419 13.5074 28.8706 15.5001 28.8664C22.653 28.8707 28.6294 22.9007 28.6294 15.7564C28.6294 8.62069 22.6508 2.6314 15.5001 2.63569Z" stroke="black" stroke-width="2" stroke-linecap="round" stroke-linejoin="round"/>
<path d="M16.2223 21.5357C17.9988 22.6736 19.8481 21.8443 21.1381 20.8822C22.0273 20.2179 21.9995 18.9386 21.2388 18.1286L19.7388 16.5322C19.1709 17.1 18.0609 17.3829 17.2916 17.1472C15.6352 16.6436 14.9409 15.7822 14.3773 14.9036C13.7323 13.8964 14.4631 12.3922 15.0309 11.8243L13.3595 10.2986C12.6545 9.65573 11.5852 9.54859 10.9702 10.2772C9.75306 11.7193 8.99877 13.9114 9.89234 15.3064C11.4995 17.8114 13.7173 19.9286 16.2223 21.5357Z" stroke="black" stroke-width="2" stroke-linecap="round" stroke-linejoin="round"/>
</svg>
