<svg width="31" height="31" viewBox="0 0 31 31" fill="none" xmlns="http://www.w3.org/2000/svg">
<path d="M9.25 10.875L12.9275 13.05C15.0713 14.3175 15.9275 14.3175 18.0725 13.05L21.75 10.875" stroke="black" stroke-width="2" stroke-linecap="round" stroke-linejoin="round"/>
<path d="M3.02001 17.095C3.10126 20.9262 3.14251 22.8425 4.55626 24.2612C5.97001 25.6812 7.93751 25.73 11.8738 25.8287C14.2988 25.8912 16.7013 25.8912 19.1263 25.8287C23.0625 25.73 25.03 25.6812 26.4438 24.2612C27.8575 22.8425 27.8988 20.9262 27.9813 17.095C28.0063 15.8625 28.0063 14.6375 27.9813 13.405C27.8988 9.57373 27.8575 7.65748 26.4438 6.23873C25.03 4.81873 23.0625 4.76998 19.1263 4.67123C16.7091 4.61024 14.2909 4.61024 11.8738 4.67123C7.93751 4.76998 5.97001 4.81873 4.55626 6.23873C3.14251 7.65748 3.10126 9.57373 3.01876 13.405C2.99244 14.6348 2.99369 15.8651 3.02001 17.095Z" stroke="black" stroke-width="2" stroke-linecap="round" stroke-linejoin="round"/>
</svg>
