<svg width="43" height="44" viewBox="0 0 43 44" fill="none" xmlns="http://www.w3.org/2000/svg">
<g clip-path="url(#clip0_842_1463)">
<path d="M0.917637 21.2936C0.916629 24.9065 1.868 28.4341 3.67703 31.5435L0.744629 42.1671L11.7016 39.3165C14.7321 40.9535 18.1276 41.8112 21.5781 41.8115H21.5872C32.978 41.8115 42.2504 32.6143 42.2552 21.3098C42.2574 15.832 40.1095 10.681 36.2069 6.80564C32.305 2.93064 27.1156 0.795469 21.5864 0.792969C10.1942 0.792969 0.922508 9.98964 0.917805 21.2936" fill="url(#paint0_linear_842_1463)"/>
<path d="M0.179727 21.287C0.178551 25.0299 1.16402 28.6837 3.03755 31.9044L0 42.9089L11.3498 39.956C14.4771 41.6479 17.998 42.5399 21.5808 42.5412H21.59C33.3895 42.5412 42.995 33.0132 43 21.304C43.002 15.6294 40.7768 10.2932 36.7348 6.27903C32.6923 2.26536 27.3173 0.0533587 21.59 0.0510254C9.78855 0.0510254 0.18443 9.57769 0.179727 21.287ZM6.93896 31.3497L6.51517 30.6822C4.7337 27.8715 3.79341 24.6235 3.79475 21.2884C3.79845 11.5559 11.781 3.63769 21.5968 3.63769C26.3503 3.63969 30.8176 5.47836 34.1776 8.81436C37.5375 12.1507 39.3863 16.5857 39.3851 21.3027C39.3808 31.0352 31.3981 38.9544 21.59 38.9544H21.583C18.3894 38.9527 15.2573 38.1017 12.5258 36.4935L11.8757 36.111L5.14052 37.8632L6.93896 31.3497Z" fill="url(#paint1_linear_842_1463)"/>
<path d="M16.2388 12.409C15.838 11.5252 15.4162 11.5073 15.0351 11.4918C14.723 11.4785 14.3663 11.4795 14.0098 11.4795C13.6531 11.4795 13.0734 11.6127 12.5835 12.1435C12.093 12.6748 10.7109 13.9588 10.7109 16.5703C10.7109 19.1818 12.628 21.7058 12.8952 22.0603C13.1628 22.4142 16.5961 27.9448 22.0335 30.0725C26.5526 31.8407 27.4722 31.489 28.453 31.4003C29.4339 31.312 31.6182 30.1167 32.0638 28.8772C32.5098 27.6378 32.5098 26.5755 32.3761 26.3535C32.2423 26.1323 31.8856 25.9995 31.3506 25.7342C30.8156 25.4688 28.1854 24.1845 27.6951 24.0073C27.2046 23.8303 26.848 23.742 26.4913 24.2735C26.1345 24.8042 25.1101 25.9995 24.7978 26.3535C24.4859 26.7083 24.1736 26.7525 23.6388 26.487C23.1035 26.2207 21.3806 25.6608 19.3366 23.8527C17.7463 22.4457 16.6727 20.7082 16.3606 20.1767C16.0485 19.646 16.3271 19.3583 16.5954 19.0938C16.8358 18.856 17.1305 18.474 17.3983 18.1642C17.665 17.8542 17.754 17.633 17.9324 17.279C18.111 16.9247 18.0216 16.6147 17.8881 16.3492C17.754 16.0837 16.7145 13.4585 16.2388 12.409Z" fill="white"/>
</g>
<defs>
<linearGradient id="paint0_linear_842_1463" x1="2076.28" y1="4138.21" x2="2076.28" y2="0.792969" gradientUnits="userSpaceOnUse">
<stop stop-color="#1FAF38"/>
<stop offset="1" stop-color="#60D669"/>
</linearGradient>
<linearGradient id="paint1_linear_842_1463" x1="2150" y1="4285.83" x2="2150" y2="0.0510254" gradientUnits="userSpaceOnUse">
<stop stop-color="#F9F9F9"/>
<stop offset="1" stop-color="white"/>
</linearGradient>
<clipPath id="clip0_842_1463">
<rect width="43" height="43" fill="white" transform="translate(0 0.0510254)"/>
</clipPath>
</defs>
</svg>
