<svg width="29" height="29" viewBox="0 0 29 29" fill="none" xmlns="http://www.w3.org/2000/svg">
<path fill-rule="evenodd" clip-rule="evenodd" d="M10.2708 1.20833C9.55729 1.20818 8.85531 1.38857 8.23025 1.73271C7.60518 2.07684 7.07735 2.57353 6.69589 3.17654C6.31442 3.77955 6.09173 4.46927 6.04854 5.1815C6.00535 5.89373 6.14306 6.60531 6.44886 7.25H3.62499C3.30452 7.25 2.99718 7.3773 2.77057 7.60391C2.54396 7.83051 2.41666 8.13786 2.41666 8.45833V13.2917C2.41666 13.6121 2.54396 13.9195 2.77057 14.1461C2.99718 14.3727 3.30452 14.5 3.62499 14.5V22.9583C3.62499 23.9197 4.00691 24.8418 4.68673 25.5216C5.36655 26.2014 6.28858 26.5833 7.24999 26.5833H21.75C22.7114 26.5833 23.6334 26.2014 24.3133 25.5216C24.9931 24.8418 25.375 23.9197 25.375 22.9583V14.5C25.6955 14.5 26.0028 14.3727 26.2294 14.1461C26.456 13.9195 26.5833 13.6121 26.5833 13.2917V8.45833C26.5833 8.13786 26.456 7.83051 26.2294 7.60391C26.0028 7.3773 25.6955 7.25 25.375 7.25H22.5511C22.8569 6.60531 22.9946 5.89373 22.9514 5.1815C22.9083 4.46927 22.6856 3.77955 22.3041 3.17654C21.9226 2.57353 21.3948 2.07684 20.7697 1.73271C20.1447 1.38857 19.4427 1.20818 18.7292 1.20833C17.9183 1.20824 17.1176 1.38952 16.3859 1.73888C15.6541 2.08825 15.0098 2.59685 14.5 3.22745C13.9902 2.59685 13.3459 2.08825 12.6141 1.73888C11.8823 1.38952 11.0817 1.20824 10.2708 1.20833ZM15.7083 24.1667H21.75C22.0705 24.1667 22.3778 24.0394 22.6044 23.8127C22.831 23.5861 22.9583 23.2788 22.9583 22.9583V14.5H15.7083V24.1667ZM13.2917 14.5V24.1667H7.24999C6.92952 24.1667 6.62218 24.0394 6.39557 23.8127C6.16896 23.5861 6.04166 23.2788 6.04166 22.9583V14.5H13.2917ZM18.7292 7.25C19.2099 7.25 19.6709 7.05904 20.0108 6.71913C20.3507 6.37922 20.5417 5.9182 20.5417 5.4375C20.5417 4.95679 20.3507 4.49577 20.0108 4.15586C19.6709 3.81595 19.2099 3.62499 18.7292 3.62499C17.928 3.62499 17.1596 3.94326 16.5931 4.50978C16.0266 5.07629 15.7083 5.84465 15.7083 6.64583V7.25H18.7292ZM13.2917 7.25V6.64583C13.2917 5.84465 12.9734 5.07629 12.4069 4.50978C11.8404 3.94326 11.072 3.62499 10.2708 3.62499C9.79012 3.62499 9.3291 3.81595 8.98919 4.15586C8.64928 4.49577 8.45832 4.95679 8.45832 5.4375C8.45832 5.9182 8.64928 6.37922 8.98919 6.71913C9.3291 7.05904 9.79012 7.25 10.2708 7.25H13.2917Z" fill="black"/>
</svg>
