<svg width="20" height="23" viewBox="0 0 20 23" fill="none" xmlns="http://www.w3.org/2000/svg">
<path d="M1 11.2321C1 9.53988 1 8.69377 1.34143 7.94984C1.68411 7.20592 2.32586 6.65639 3.61059 5.55483L4.8567 4.48692C7.18069 2.49689 8.33956 1.5 9.72274 1.5C11.1059 1.5 12.266 2.49564 14.5888 4.48567L15.8349 5.55358C17.1184 6.65514 17.7614 7.20467 18.1028 7.9486C18.4455 8.69252 18.4455 9.53863 18.4455 11.2308V16.5156C18.4455 18.8657 18.4455 20.0396 17.7153 20.7698C16.985 21.5 15.8112 21.5 13.4611 21.5H5.98442C3.63427 21.5 2.46044 21.5 1.73022 20.7698C1 20.0396 1 18.8657 1 16.5156V11.2321Z" stroke="black" stroke-width="2"/>
<path d="M12.8379 21.5V15.2695C12.8379 14.939 12.7066 14.622 12.4729 14.3883C12.2393 14.1546 11.9223 14.0233 11.5918 14.0233H7.8535C7.52301 14.0233 7.20606 14.1546 6.97237 14.3883C6.73868 14.622 6.60739 14.939 6.60739 15.2695V21.5" stroke="black" stroke-width="2" stroke-linecap="round" stroke-linejoin="round"/>
</svg>
