<svg width="38" height="29" viewBox="0 0 38 29" fill="none" xmlns="http://www.w3.org/2000/svg">
<g clip-path="url(#clip0_842_1499)">
<path d="M8.63639 27.9132V13.5635L4.08307 9.49221L0 7.23291V25.3808C0 26.782 1.16152 27.9132 2.59098 27.9132H8.63639Z" fill="#4285F4"/>
<path d="M29.3635 27.9133H35.4089C36.8427 27.9133 37.9999 26.7779 37.9999 25.3809V7.23315L33.3752 9.82091L29.3635 13.5636V27.9133Z" fill="#34A853"/>
<path d="M8.63642 13.5637L8.01685 7.95686L8.63642 2.59058L19 10.1874L29.3636 2.59058L30.0567 7.66714L29.3636 13.5637L19 21.1605L8.63642 13.5637Z" fill="#EA4335"/>
<path d="M29.3635 2.59042V13.5635L37.9999 7.23291V3.85651C37.9999 0.725012 34.3424 -1.06017 31.7819 0.817861L29.3635 2.59042Z" fill="#FBBC04"/>
<path d="M0 7.23297L3.97204 10.1447L8.63639 13.5636V2.59049L6.21805 0.817928C3.65305 -1.06025 0 0.725078 0 3.85644V7.23297Z" fill="#C5221F"/>
</g>
<defs>
<clipPath id="clip0_842_1499">
<rect width="38" height="28" fill="white" transform="translate(0 0.0510254)"/>
</clipPath>
</defs>
</svg>
