<svg width="24" height="25" viewBox="0 0 24 25" fill="none" xmlns="http://www.w3.org/2000/svg">
<path fill-rule="evenodd" clip-rule="evenodd" d="M22 12.5C22 6.977 17.523 2.5 12 2.5C6.477 2.5 2 6.977 2 12.5C2 18.023 6.477 22.5 12 22.5C17.523 22.5 22 18.023 22 12.5ZM12 7.5C12.2652 7.5 12.5196 7.60536 12.7071 7.79289C12.8946 7.98043 13 8.23478 13 8.5V13.5C13 13.7652 12.8946 14.0196 12.7071 14.2071C12.5196 14.3946 12.2652 14.5 12 14.5C11.7348 14.5 11.4804 14.3946 11.2929 14.2071C11.1054 14.0196 11 13.7652 11 13.5V8.5C11 8.23478 11.1054 7.98043 11.2929 7.79289C11.4804 7.60536 11.7348 7.5 12 7.5ZM11 16.5C11 16.2348 11.1054 15.9804 11.2929 15.7929C11.4804 15.6054 11.7348 15.5 12 15.5H12.008C12.2732 15.5 12.5276 15.6054 12.7151 15.7929C12.9026 15.9804 13.008 16.2348 13.008 16.5C13.008 16.7652 12.9026 17.0196 12.7151 17.2071C12.5276 17.3946 12.2732 17.5 12.008 17.5H12C11.7348 17.5 11.4804 17.3946 11.2929 17.2071C11.1054 17.0196 11 16.7652 11 16.5Z" fill="black"/>
</svg>
