<svg width="24" height="25" viewBox="0 0 24 25" fill="none" xmlns="http://www.w3.org/2000/svg">
<g clip-path="url(#clip0_626_548)">
<path d="M12 13.5L4 8.5V18.5H12C12 18.85 12.025 19.1877 12.075 19.513C12.125 19.8383 12.2 20.1673 12.3 20.5H4C3.45 20.5 2.97933 20.3043 2.588 19.913C2.19667 19.5217 2.00067 19.0507 2 18.5V6.5C2 5.95 2.196 5.47933 2.588 5.088C2.98 4.69667 3.45067 4.50067 4 4.5H20C20.55 4.5 21.021 4.696 21.413 5.088C21.805 5.48 22.0007 5.95067 22 6.5V12.2C21.7 12.05 21.3793 11.925 21.038 11.825C20.6967 11.725 20.3507 11.65 20 11.6V8.5L12 13.5ZM12 11.5L20 6.5H4L12 11.5ZM19 23.5C17.6167 23.5 16.4377 23.0123 15.463 22.037C14.4883 21.0617 14.0007 19.8827 14 18.5C13.9993 17.1173 14.487 15.9383 15.463 14.963C16.439 13.9877 17.618 13.5 19 13.5C20.382 13.5 21.5613 13.9877 22.538 14.963C23.5147 15.9383 24.002 17.1173 24 18.5C23.998 19.8827 23.5103 21.062 22.537 22.038C21.5637 23.014 20.3847 23.5013 19 23.5ZM16 19H22V18H16V19Z" fill="black"/>
</g>
<defs>
<clipPath id="clip0_626_548">
<rect width="24" height="24" fill="white" transform="translate(0 0.5)"/>
</clipPath>
</defs>
</svg>
