<svg width="19" height="19" viewBox="0 0 19 19" fill="none" xmlns="http://www.w3.org/2000/svg">
<circle cx="9.495" cy="9.45999" r="8.5" stroke="#FF0000"/>
<path d="M14.4035 12.4936L11.3699 9.45999L14.4035 6.42639C14.4616 6.36755 14.4942 6.28817 14.4942 6.20546C14.4942 6.12275 14.4616 6.04338 14.4035 5.98454L12.9704 4.55148C12.9118 4.4929 12.8324 4.45999 12.7495 4.45999C12.6667 4.45999 12.5872 4.4929 12.5286 4.55148L9.495 7.58508L6.46139 4.55148C6.40279 4.4929 6.32333 4.45999 6.24047 4.45999C6.15761 4.45999 6.07814 4.4929 6.01954 4.55148L4.58649 5.98454C4.5279 6.04314 4.495 6.1226 4.495 6.20546C4.495 6.28832 4.5279 6.36779 4.58649 6.42639L7.62009 9.45999L4.58649 12.4936C4.5279 12.5522 4.495 12.6317 4.495 12.7145C4.495 12.7974 4.5279 12.8768 4.58649 12.9354L6.01954 14.3685C6.07814 14.4271 6.15761 14.46 6.24047 14.46C6.32333 14.46 6.40279 14.4271 6.46139 14.3685L9.495 11.3349L12.5286 14.3685C12.5872 14.4271 12.6667 14.46 12.7495 14.46C12.8324 14.46 12.9118 14.4271 12.9704 14.3685L14.4035 12.9354C14.4621 12.8768 14.495 12.7974 14.495 12.7145C14.495 12.6317 14.4621 12.5522 14.4035 12.4936Z" fill="#FF0000"/>
</svg>
