<svg width="17" height="17" viewBox="0 0 17 17" fill="none" xmlns="http://www.w3.org/2000/svg">
<mask id="path-1-inside-1_4_410" fill="white">
<path d="M0.700195 8.3C0.700195 3.99218 4.19237 0.5 8.5002 0.5C12.808 0.5 16.3002 3.99218 16.3002 8.3C16.3002 12.6078 12.808 16.1 8.5002 16.1C4.19237 16.1 0.700195 12.6078 0.700195 8.3Z"/>
</mask>
<path d="M0.700195 8.3C0.700195 3.99218 4.19237 0.5 8.5002 0.5C12.808 0.5 16.3002 3.99218 16.3002 8.3C16.3002 12.6078 12.808 16.1 8.5002 16.1C4.19237 16.1 0.700195 12.6078 0.700195 8.3Z" fill="#0485C6"/>
<path d="M8.5002 14.1C5.29694 14.1 2.7002 11.5033 2.7002 8.3H-1.2998C-1.2998 13.7124 3.08781 18.1 8.5002 18.1V14.1ZM14.3002 8.3C14.3002 11.5033 11.7034 14.1 8.5002 14.1V18.1C13.9126 18.1 18.3002 13.7124 18.3002 8.3H14.3002ZM8.5002 2.5C11.7034 2.5 14.3002 5.09675 14.3002 8.3H18.3002C18.3002 2.88761 13.9126 -1.5 8.5002 -1.5V2.5ZM8.5002 -1.5C3.08781 -1.5 -1.2998 2.88761 -1.2998 8.3H2.7002C2.7002 5.09675 5.29694 2.5 8.5002 2.5V-1.5Z" fill="#0485C6" mask="url(#path-1-inside-1_4_410)"/>
</svg>
