<svg width="19" height="19" viewBox="0 0 19 19" fill="none" xmlns="http://www.w3.org/2000/svg">
<circle cx="9.495" cy="9.45999" r="8.5" stroke="#00B67A"/>
<path d="M3.32096 9.28052C3.2724 9.3276 3.245 9.39235 3.245 9.45999C3.245 9.52763 3.2724 9.59238 3.32096 9.63947L7.44596 13.6395C7.54293 13.7335 7.69706 13.7335 7.79403 13.6395L14.669 6.9728C14.7176 6.92571 14.745 6.86096 14.745 6.79332C14.745 6.72569 14.7176 6.66094 14.669 6.61385L13.294 5.28052C13.1971 5.18648 13.0429 5.18648 12.946 5.28052L7.62 10.4451L5.04403 7.94718C4.94706 7.85315 4.79293 7.85315 4.69596 7.94718L3.32096 9.28052Z" fill="#00B67A" stroke="#00B67A" stroke-width="0.5" stroke-linecap="round" stroke-linejoin="round"/>
</svg>
