<svg width="100%" height="auto" viewBox="0 0 43 25" fill="none" xmlns="http://www.w3.org/2000/svg">
<mask id="mask0_909_3748" style="mask-type:alpha" maskUnits="userSpaceOnUse" x="0" y="0" width="43" height="25">
<rect width="43" height="25" rx="5" fill="#D9D9D9"/>
</mask>
<g mask="url(#mask0_909_3748)">
<path d="M42.9962 10.5257V1.11341V0H42.0171H0V0.244873V1.90542V3.09917V9.03734V10.5257V14.9793V16.4639V22.3867V24.8508V24.9962H42.9962V24.759V23.0984V14.9793H43V10.5257H42.9962Z" fill="#1A237B"/>
<path d="M42.9962 1.11341L28.7908 9.03734H25.8192L42.0171 0H0V0.244873L15.7027 9.04117H12.7272L0 1.90542V3.09917L10.5696 9.03734H0V10.5257H19.684V0H23.673V10.5219H43V9.03352H32.7875L43 3.30196V1.11341H42.9962ZM18.3556 8.40603L3.35938 0H18.3556V8.40603ZM25.0014 0H40.0553L25.0014 8.40603V0ZM23.673 24.9962H19.684V14.9793H0V16.4639H10.5696L0 22.3867V24.8508L15.0308 16.4601H18.0063L2.71438 24.9962H0H42.9962V24.759L28.1189 16.4639H31.0944L43 23.0984V22.1342L32.7875 16.4639H43V14.9793H23.673V24.9962ZM18.3556 24.9962H4.20786L18.3518 17.0952V24.9962H18.3556ZM25.0014 17.099L39.1876 25H25.0014V17.099Z" fill="white"/>
<path d="M28.7908 9.03734H25.8192L42.0171 0H42.9962V1.11341L28.7908 9.03734ZM28.1189 16.4639L42.9962 24.759V23.0984L31.0905 16.4639H28.1151H28.1189ZM15.7027 9.03734L0 0.244873V1.90542L12.7272 9.04117H15.7027V9.03734ZM0 24.8508V24.9962H2.71438L18.0024 16.4639H15.027L0 24.8508ZM42.9962 10.5257H23.6692V0H19.6802V10.5219H0V14.9755H19.684V24.9923H23.673V14.9755H43V10.5219L42.9962 10.5257Z" fill="#BD0034"/>
</g>
</svg>
