<svg width="40" height="40" viewBox="0 0 40 40" fill="none" xmlns="http://www.w3.org/2000/svg">
<path d="M34.4244 18.4243C33.5577 18.4243 32.8486 19.1334 32.8486 20V29.4546C32.8486 32.0546 30.7214 34.1818 28.1214 34.1818H9.21228C6.61228 34.1818 4.48501 32.0546 4.48501 29.4546V10.5455C4.48501 7.94547 6.61228 5.8182 9.21228 5.8182H18.6668C19.5335 5.8182 20.2426 5.10911 20.2426 4.24244C20.2426 3.37578 19.5335 2.66669 18.6668 2.66669H9.21228C4.86319 2.66669 1.3335 6.19638 1.3335 10.5455V29.4546C1.3335 33.8037 4.86319 37.3334 9.21228 37.3334H28.1214C32.4705 37.3334 36.0002 33.8037 36.0002 29.4546V20C36.0002 19.1334 35.2911 18.4243 34.4244 18.4243Z" fill="white"/>
<path d="M22.8165 8C22.8165 3.66684 26.3333 0.15 30.6665 0.15C34.9997 0.15 38.5165 3.66684 38.5165 8C38.5165 12.3332 34.9997 15.85 30.6665 15.85C26.3333 15.85 22.8165 12.3332 22.8165 8ZM25.7165 8C25.7165 10.7228 27.9437 12.95 30.6665 12.95C33.3893 12.95 35.6165 10.7228 35.6165 8C35.6165 5.27716 33.3893 3.05 30.6665 3.05C27.9437 3.05 25.7165 5.27716 25.7165 8Z" fill="white" stroke="white" stroke-width="0.3"/>
</svg>
