<svg width="40" height="40" viewBox="0 0 40 40" fill="none" xmlns="http://www.w3.org/2000/svg">
<path d="M15 26.6666C16.4167 27.7166 18.1417 28.3333 20 28.3333C21.8583 28.3333 23.5833 27.7166 25 26.6666" stroke="white" stroke-width="3" stroke-linecap="round"/>
<path d="M36.0598 21.5966L35.5948 24.825C34.7831 30.4716 34.3764 33.2933 32.4181 34.98C30.4598 36.6666 27.5881 36.6666 21.8431 36.6666H18.1564C12.4114 36.6666 9.53978 36.6666 7.58145 34.98C5.62311 33.2933 5.21645 30.4716 4.40478 24.825L3.93978 21.5966C3.30645 17.2016 2.98978 15.0033 3.89145 13.125C4.79311 11.2466 6.70978 10.1033 10.5448 7.81998L12.8531 6.44498C16.3331 4.36998 18.0764 3.33331 19.9998 3.33331C21.9231 3.33331 23.6648 4.36998 27.1464 6.44498L29.4548 7.81998C33.2881 10.1033 35.2064 11.2466 36.1081 13.125" stroke="white" stroke-width="3" stroke-linecap="round"/>
</svg>
