<svg width="122" height="21" viewBox="0 0 122 21" fill="none" xmlns="http://www.w3.org/2000/svg">
<path d="M21.3753 0H0.320801V21H21.3753V0Z" fill="#00B67A"/>
<path d="M46.4402 0H25.3857V21H46.4402V0Z" fill="#00B67A"/>
<path d="M71.5052 0H50.4507V21H71.5052V0Z" fill="#00B67A"/>
<path d="M96.5701 0H75.5156V21H96.5701V0Z" fill="#00B67A"/>
<path d="M121.572 0H111.045V21H121.572V0Z" fill="#DCDCE6"/>
<path d="M111.045 0H100.518V21H111.045V0Z" fill="#00B67A"/>
<path d="M10.8482 13.4241L14.5513 12.6791L16.0984 16.4645L10.8482 13.4241ZM19.3703 8.53133H12.8519L10.8482 3.65869L8.84453 8.53133H2.32617L7.60173 11.5516L5.59803 16.4242L10.8736 13.404L14.1201 11.5516L19.3703 8.53133Z" fill="white"/>
<path d="M35.9127 13.4241L39.6157 12.6791L41.1629 16.4645L35.9127 13.4241ZM44.4347 8.53133H37.9164L35.9127 3.65869L33.909 8.53133H27.3906L32.6662 11.5516L30.6625 16.4242L35.938 13.404L39.1845 11.5516L44.4347 8.53133Z" fill="white"/>
<path d="M60.9776 13.4241L64.6807 12.6791L66.2278 16.4645L60.9776 13.4241ZM69.4997 8.53133H62.9813L60.9776 3.65869L58.9739 8.53133H52.4556L57.7311 11.5516L55.7274 16.4242L61.003 13.404L64.2495 11.5516L69.4997 8.53133Z" fill="white"/>
<path d="M86.0426 13.4241L89.7456 12.6791L91.2928 16.4645L86.0426 13.4241ZM94.5646 8.53133H88.0463L86.0426 3.65869L84.0389 8.53133H77.5205L82.7961 11.5516L80.7924 16.4242L86.0679 13.404L89.3144 11.5516L94.5646 8.53133Z" fill="white"/>
<path d="M111.108 13.4241L114.811 12.6791L116.358 16.4645L111.108 13.4241ZM119.63 8.53133H113.111L111.108 3.65869L109.104 8.53133H102.585L107.861 11.5516L105.857 16.4242L111.133 13.404L114.379 11.5516L119.63 8.53133Z" fill="white"/>
</svg>
