<svg width="116" height="30" viewBox="0 0 116 30" fill="none" xmlns="http://www.w3.org/2000/svg">
<g clip-path="url(#clip0_4_747)">
<path d="M30.479 10.8111H42.2224V12.9629H37.6056V25.0617H35.0652V12.9629H30.4683V10.8103H30.4782L30.479 10.8111ZM41.7211 14.7427H43.8919V16.7346H43.9325C44.0046 16.4529 44.1372 16.1811 44.3319 15.9193C44.7483 15.3581 45.3118 14.9231 45.9601 14.6623C46.2893 14.5318 46.6399 14.4636 46.9941 14.461C47.2593 14.461 47.4548 14.4709 47.5575 14.4817C47.6595 14.4916 47.7614 14.5115 47.8741 14.5215V16.7139C47.7078 16.6848 47.5406 16.6613 47.3728 16.6434C47.2061 16.6237 47.0385 16.6138 46.8707 16.6136C46.4812 16.6136 46.1133 16.694 45.7653 16.8456C45.4173 16.9956 45.1199 17.2268 44.8647 17.5192C44.5924 17.8463 44.3839 18.2215 44.2499 18.6254C44.0966 19.0678 44.0245 19.57 44.0245 20.1442V25.0518H41.7111V14.7427H41.7211ZM58.5121 25.0626H56.2393V23.6242H56.1979C55.9112 24.1478 55.4919 24.5604 54.9285 24.872C54.3651 25.1835 53.7917 25.3443 53.2084 25.3443C51.8264 25.3443 50.8221 25.0128 50.209 24.3384C49.5942 23.6648 49.2868 22.6489 49.2868 21.2909V14.7435H51.601V21.0697C51.601 21.9753 51.775 22.6191 52.1337 22.9911C52.4817 23.3632 52.983 23.5546 53.6177 23.5546C54.1091 23.5546 54.5084 23.4841 54.8357 23.3325C55.1638 23.1817 55.4298 22.9911 55.6245 22.7392C55.8292 22.4981 55.9725 22.1965 56.0653 21.8543C56.1565 21.5121 56.1979 21.1401 56.1979 20.7382V14.7535H58.5121V25.0626ZM62.4536 21.7541C62.5257 22.4169 62.7809 22.8809 63.2217 23.1519C63.6716 23.4137 64.2044 23.5546 64.8291 23.5546C65.0445 23.5546 65.2898 23.5338 65.5666 23.504C65.8425 23.4734 66.1084 23.4029 66.3446 23.3134C66.5898 23.2223 66.7837 23.0814 66.9478 22.9008C67.1019 22.7185 67.1731 22.4882 67.1632 22.1965C67.1619 22.0612 67.132 21.9276 67.0757 21.8045C67.0193 21.6815 66.9376 21.5717 66.8359 21.4823C66.6304 21.2917 66.3752 21.1509 66.0571 21.0299C65.7026 20.9071 65.3399 20.8096 64.9716 20.7382C64.5623 20.6579 64.153 20.5667 63.7337 20.4764C63.3114 20.385 62.8943 20.2708 62.4843 20.1342C62.0997 20.011 61.737 19.8278 61.4096 19.5915C61.0905 19.3688 60.8304 19.072 60.6515 18.7265C60.4576 18.3743 60.3648 17.9418 60.3648 17.419C60.3648 16.8556 60.5081 16.3932 60.7849 16.0104C61.064 15.6308 61.4244 15.3183 61.8396 15.0957C62.2859 14.8597 62.7657 14.6935 63.2623 14.6027C63.7843 14.5124 64.2864 14.4618 64.757 14.4618C65.2997 14.4618 65.8217 14.5223 66.3139 14.6333C66.7904 14.7353 67.2446 14.9226 67.6545 15.186C68.0539 15.4379 68.3812 15.7693 68.648 16.172C68.914 16.5738 69.078 17.0668 69.1493 17.6402H66.7332C66.6205 17.0975 66.3744 16.7255 65.9759 16.544C65.5765 16.3534 65.1158 16.2623 64.6037 16.2623C64.4397 16.2623 64.245 16.2722 64.0204 16.3029C63.8041 16.3317 63.5911 16.3822 63.3849 16.4537C63.1964 16.5231 63.0253 16.6328 62.8836 16.7752C62.8148 16.8495 62.7613 16.9366 62.7262 17.0316C62.6911 17.1265 62.6751 17.2275 62.679 17.3287C62.679 17.6104 62.7809 17.8316 62.9756 18.0023C63.1703 18.173 63.4263 18.3138 63.7437 18.4348C64.061 18.5458 64.4198 18.6461 64.8291 18.7265C65.2384 18.8068 65.6577 18.8972 66.0886 18.9883C66.5078 19.0786 66.9171 19.1996 67.3273 19.3297C67.7366 19.4606 68.0945 19.642 68.4127 19.8732C68.73 20.1044 68.9861 20.3861 69.1799 20.7283C69.3747 21.0697 69.4774 21.5022 69.4774 22.0051C69.4774 22.6183 69.3341 23.132 69.0466 23.5645C68.7607 23.9871 68.392 24.3384 67.9412 24.6002C67.4694 24.872 66.9581 25.0688 66.4258 25.1835C65.8842 25.3027 65.3314 25.3632 64.7769 25.3642C64.1559 25.3711 63.5367 25.2968 62.935 25.1429C62.3716 24.9921 61.8802 24.7709 61.4709 24.4801C61.0664 24.1861 60.7338 23.8042 60.4982 23.3632C60.2629 22.9207 60.1394 22.3871 60.1195 21.774H62.4536V21.7541ZM70.0914 14.7444H71.8421V11.6455H74.1563V14.7444H76.2443V16.4429H74.1572V21.9554C74.1572 22.1957 74.1671 22.3979 74.1878 22.5785C74.2077 22.75 74.2591 22.9008 74.3312 23.021C74.4095 23.1472 74.5284 23.243 74.6684 23.2927C74.8225 23.3532 75.0164 23.3839 75.2832 23.3839C75.4464 23.3839 75.6105 23.3839 75.7746 23.3731C75.9386 23.3632 76.1018 23.3433 76.2659 23.3027V25.0626C76.0099 25.0932 75.7538 25.1131 75.5185 25.1429C75.2705 25.1718 75.0209 25.1853 74.7711 25.1835C74.1572 25.1835 73.6658 25.123 73.2963 25.0128C72.9284 24.9018 72.631 24.7311 72.4263 24.5099C72.2109 24.2887 72.0783 24.0169 71.9963 23.6846C71.9165 23.311 71.8721 22.9307 71.8637 22.5487V16.462H70.1129V14.7419H70.0922L70.0914 14.7444ZM77.8824 14.7444H80.074V16.1413H80.1154C80.4419 15.5381 80.8926 15.1156 81.4759 14.8546C82.0722 14.5895 82.7184 14.4555 83.3709 14.4618C84.1995 14.4618 84.9162 14.6027 85.531 14.8943C86.145 15.176 86.657 15.5688 87.0663 16.0709C87.4756 16.5738 87.7731 17.1572 87.9778 17.8217C88.1863 18.5129 88.2899 19.2316 88.2852 19.9536C88.2852 20.6471 88.1932 21.3207 88.0084 21.9654C87.8387 22.5872 87.5577 23.173 87.179 23.6946C86.8068 24.1974 86.3233 24.6072 85.7663 24.8919C85.1929 25.1935 84.5276 25.3443 83.7496 25.3443C83.4095 25.3439 83.0701 25.3134 82.7354 25.2531C82.4015 25.193 82.0755 25.0954 81.7635 24.9623C81.4535 24.833 81.1636 24.66 80.9026 24.4486C80.645 24.2431 80.4205 23.9991 80.2372 23.7252H80.1958V28.8748H77.8824V14.7427V14.7444ZM85.971 19.913C85.9714 19.4543 85.9095 18.9978 85.787 18.5558C85.6736 18.137 85.4861 17.7419 85.2335 17.3892C84.9938 17.0535 84.6829 16.7751 84.3229 16.5738C83.9363 16.3649 83.5029 16.2577 83.0635 16.2623C82.0907 16.2623 81.3533 16.5937 80.862 17.2582C80.3706 17.9219 80.1245 18.8077 80.1245 19.913C80.1245 20.4358 80.1867 20.9189 80.3193 21.3613C80.4518 21.8038 80.6366 22.1866 80.9026 22.5081C81.1594 22.8304 81.466 23.0814 81.8248 23.2621C82.1827 23.4535 82.6028 23.5438 83.0734 23.5438C83.6062 23.5438 84.0462 23.4336 84.4149 23.2223C84.7719 23.0169 85.0794 22.7354 85.3156 22.3979C85.5509 22.0557 85.7257 21.6729 85.8276 21.2412C85.9218 20.8047 85.9699 20.3595 85.971 19.913ZM90.0558 10.8111H92.37V12.9638H90.0558V10.8111ZM90.0558 14.7435H92.37V25.0626H90.0558V14.7435ZM94.4381 10.8111H96.7523V25.0626H94.4381V10.8111ZM103.847 25.3443C103.007 25.3443 102.26 25.2034 101.605 24.9325C100.978 24.6751 100.41 24.2915 99.9365 23.8056C99.4764 23.3099 99.1241 22.7242 98.9016 22.0855C98.6581 21.3805 98.537 20.639 98.5437 19.8931C98.5437 19.1084 98.6663 18.3851 98.9016 17.7206C99.1242 17.0822 99.4766 16.4968 99.9365 16.0013C100.386 15.5182 100.95 15.1462 101.605 14.8744C102.26 14.6027 103.007 14.4618 103.847 14.4618C104.687 14.4618 105.434 14.6027 106.089 14.8744C106.745 15.1462 107.298 15.529 107.758 16.0013C108.218 16.4966 108.57 17.0821 108.792 17.7206C109.028 18.3843 109.15 19.1084 109.15 19.8931C109.15 20.6885 109.028 21.4218 108.792 22.0855C108.57 22.7243 108.218 23.3101 107.758 23.8056C107.307 24.2887 106.745 24.6607 106.089 24.9325C105.434 25.2034 104.687 25.3443 103.847 25.3443ZM103.847 23.5438C104.359 23.5438 104.809 23.4336 105.188 23.2223C105.557 23.0169 105.876 22.7315 106.12 22.3871C106.365 22.0457 106.539 21.653 106.663 21.2205C106.776 20.788 106.837 20.3455 106.837 19.8931C106.837 19.4506 106.776 19.0181 106.663 18.5757C106.557 18.156 106.373 17.7601 106.12 17.409C105.875 17.0679 105.557 16.7862 105.188 16.5846C104.809 16.3733 104.359 16.2623 103.847 16.2623C103.335 16.2623 102.885 16.3733 102.506 16.5846C102.14 16.7893 101.822 17.0705 101.575 17.409C101.325 17.7622 101.141 18.1574 101.032 18.5757C100.918 19.0057 100.86 19.4484 100.857 19.8931C100.857 20.3455 100.919 20.788 101.032 21.2205C101.145 21.653 101.329 22.0457 101.575 22.3871C101.82 22.7293 102.127 23.011 102.506 23.2223C102.885 23.4435 103.335 23.5438 103.847 23.5438ZM109.826 14.7444H111.577V11.6455H113.891V14.7444H115.979V16.4429H113.891V21.9554C113.891 22.1957 113.901 22.3979 113.921 22.5785C113.942 22.75 113.993 22.9008 114.065 23.021C114.143 23.1473 114.262 23.2432 114.403 23.2927C114.557 23.3532 114.751 23.3839 115.017 23.3839C115.181 23.3839 115.345 23.3839 115.509 23.3731C115.673 23.3632 115.836 23.3433 116 23.3027V25.0626C115.744 25.0932 115.488 25.1131 115.253 25.1429C115.005 25.1718 114.755 25.1853 114.505 25.1835C113.891 25.1835 113.399 25.123 113.03 25.0128C112.663 24.9018 112.365 24.7311 112.16 24.5099C111.946 24.2887 111.812 24.0169 111.73 23.6846C111.651 23.311 111.606 22.9306 111.598 22.5487V16.462H109.847V14.7419H109.826V14.7444Z" fill="#2C2C2C"/>
<path d="M27.7762 10.8102H17.1697L13.8935 0.893066L10.6057 10.8111L0 10.8003L8.5898 16.935L5.30369 26.8414L13.8935 20.7166L22.4733 26.8414L19.1972 16.935L27.7762 10.8102Z" fill="#04DA8D"/>
<path d="M19.9338 19.1787L19.1964 16.9358L13.8936 20.7174L19.9338 19.1787Z" fill="white"/>
</g>
<defs>
<clipPath id="clip0_4_747">
<rect width="116" height="28.1714" fill="white" transform="translate(0 0.893066)"/>
</clipPath>
</defs>
</svg>
