<svg width="100%" height="auto" viewBox="0 0 43 25" fill="none" xmlns="http://www.w3.org/2000/svg">
<mask id="mask0_914_5220" style="mask-type:alpha" maskUnits="userSpaceOnUse" x="0" y="0" width="43" height="25">
<rect width="43" height="25" rx="5" fill="#D9D9D9"/>
</mask>
<g mask="url(#mask0_914_5220)">
<path d="M42.8593 16.6692H0V25H42.8593V16.6692Z" fill="#3B8916"/>
<path d="M42.8593 8.33461H0V16.6692H42.8593V8.33461Z" fill="white"/>
<path d="M0 0V8.33461H42.8593V0H0Z" fill="#F0953E"/>
<path d="M21.4297 8.75172C19.3594 8.75172 17.6795 10.4317 17.6795 12.5019C17.6795 14.5722 19.3594 16.2521 21.4297 16.2521C23.4999 16.2521 25.1799 14.576 25.1799 12.5019C25.1799 10.4317 23.4999 8.75172 21.4297 8.75172ZM24.7972 12.7927C24.7972 12.7927 24.7857 12.7927 24.7819 12.7927C24.6977 12.7927 24.6288 12.8616 24.6288 12.9496C24.6288 13.0262 24.6862 13.0912 24.7589 13.1027C24.7398 13.1946 24.7206 13.2864 24.6977 13.3782L24.0586 13.1716L22.903 12.8004L21.9769 12.6397C21.9769 12.6397 21.9731 12.655 21.9692 12.6665L22.8532 12.9917L24.6977 13.3859C24.6709 13.4777 24.6441 13.5657 24.6097 13.6576C24.602 13.6576 24.5944 13.6499 24.5867 13.6499C24.5867 13.6499 24.5676 13.6499 24.5561 13.6499C24.4719 13.6499 24.403 13.7188 24.403 13.803C24.403 13.8221 24.4069 13.8413 24.4145 13.8642C24.4222 13.8872 24.4375 13.9063 24.4566 13.9255C24.4566 13.9255 24.4643 13.9293 24.4681 13.9331C24.4719 13.9331 24.4757 13.9369 24.4796 13.9408C24.4796 13.9408 24.4872 13.9484 24.491 13.9484C24.4528 14.0364 24.4069 14.1168 24.3609 14.201L22.7767 13.1754L21.9195 12.7813C21.9195 12.7813 21.9118 12.7966 21.908 12.8042L22.3136 13.0912L22.6772 13.3514L24.3533 14.2086C24.3074 14.2928 24.2538 14.3732 24.1964 14.4497C24.1696 14.4306 24.1428 14.4229 24.1084 14.4229C24.0242 14.4229 23.9515 14.4918 23.9515 14.5798C23.9515 14.6296 23.9744 14.6678 24.0089 14.6985C23.9477 14.7712 23.8864 14.84 23.8214 14.9051L22.5585 13.5083L21.8315 12.9075C21.8315 12.9075 21.82 12.919 21.8123 12.9267L22.4131 13.6538L23.8137 14.9166C23.7487 14.9816 23.6798 15.0467 23.6109 15.1041C23.5841 15.0811 23.5497 15.0696 23.5152 15.0696C23.431 15.0696 23.3622 15.1385 23.3622 15.2265C23.3622 15.2495 23.3622 15.2725 23.3736 15.2916C23.2895 15.349 23.2091 15.4026 23.1211 15.4523L22.2601 13.7762L21.7167 13.0032C21.7167 13.0032 21.7014 13.0109 21.6937 13.0147L22.0879 13.8719L23.1134 15.4561C23.0331 15.5021 22.9489 15.548 22.8647 15.5863C22.8417 15.5327 22.7843 15.4944 22.7231 15.4944C22.6389 15.4944 22.57 15.5633 22.57 15.6513C22.57 15.6704 22.5739 15.6896 22.5777 15.7049C22.4897 15.7393 22.3978 15.7661 22.306 15.7929L21.9118 13.9484L21.5827 13.0644C21.5827 13.0644 21.5674 13.0683 21.5598 13.0721L21.7205 14.002L22.2983 15.7967C22.2065 15.8197 22.1146 15.8426 22.0228 15.858C22.0113 15.7814 21.9463 15.724 21.8697 15.724C21.7856 15.724 21.7128 15.7929 21.7128 15.8809V15.8962C21.621 15.9039 21.5253 15.9115 21.4297 15.9115L21.5253 14.0288L21.4373 13.0874C21.4373 13.0874 21.4297 13.0874 21.4258 13.0874C21.422 13.0874 21.4144 13.0874 21.4105 13.0874L21.3225 14.0288L21.4182 15.9115C21.3225 15.9115 21.2268 15.9077 21.1312 15.8962C21.1312 15.8924 21.1312 15.8886 21.1312 15.8809C21.1312 15.7967 21.0623 15.724 20.9781 15.724C20.8977 15.724 20.8327 15.7814 20.8212 15.858C20.7294 15.8388 20.6375 15.8197 20.5495 15.7967L21.1312 14.002L21.2881 13.0721C21.2881 13.0721 21.2728 13.0683 21.2651 13.0644L20.936 13.9484L20.538 15.7929C20.4462 15.7661 20.3544 15.7393 20.2663 15.7087C20.274 15.6934 20.2778 15.6704 20.2778 15.6513C20.2778 15.5671 20.2089 15.4944 20.1248 15.4944C20.0597 15.4944 20.0061 15.5327 19.9793 15.5863C19.8951 15.548 19.8071 15.5021 19.7268 15.4561L20.7523 13.8719L21.1465 13.0109C21.1465 13.0109 21.1312 13.0032 21.1235 12.9994L20.5763 13.7724L19.7191 15.4485C19.6349 15.4026 19.5546 15.349 19.478 15.2954C19.4972 15.2686 19.5086 15.238 19.5086 15.2036C19.5086 15.1194 19.4398 15.0467 19.3518 15.0467C19.302 15.0467 19.2599 15.0696 19.2331 15.1041C19.1604 15.0429 19.0915 14.9778 19.0265 14.9128L20.4271 13.6499L21.0317 12.9229C21.0317 12.9229 21.0202 12.9114 21.0126 12.9037L20.2855 13.5083L19.0227 14.9051C18.9576 14.84 18.8925 14.7712 18.8313 14.6985C18.8658 14.6717 18.8887 14.6257 18.8887 14.576C18.8887 14.4918 18.8198 14.4191 18.7356 14.4191C18.7012 14.4191 18.6706 14.4344 18.6438 14.4497C18.5902 14.3732 18.5405 14.2928 18.4907 14.2125L20.1707 13.3514L20.9437 12.8042C20.9437 12.8042 20.936 12.7889 20.9322 12.7813L20.0712 13.1792L18.4869 14.2048C18.441 14.1244 18.3989 14.0403 18.3568 13.9561C18.418 13.9331 18.4601 13.8757 18.4601 13.8107C18.4601 13.7265 18.3912 13.6538 18.3071 13.6538C18.2841 13.6538 18.2611 13.6614 18.242 13.6691C18.2076 13.5772 18.1808 13.4854 18.154 13.3935L19.9985 12.9994L20.8863 12.6703C20.8863 12.6703 20.8824 12.655 20.8786 12.6473L19.9449 12.8081L18.1502 13.3897C18.1272 13.2979 18.1042 13.206 18.0889 13.1142C18.1655 13.1027 18.2229 13.0377 18.2229 12.9611C18.2229 12.8769 18.154 12.8042 18.0698 12.8042C18.0621 12.8042 18.0583 12.8042 18.0545 12.8042C18.0468 12.7124 18.0392 12.6167 18.0392 12.521L19.9219 12.6167L20.8633 12.5287C20.8633 12.5287 20.8633 12.521 20.8633 12.5172C20.8633 12.5134 20.8633 12.5096 20.8633 12.5019L19.9219 12.4139L18.0392 12.5096C18.0392 12.4139 18.0468 12.3182 18.0545 12.2264C18.0621 12.2264 18.0698 12.2264 18.0813 12.2264C18.1655 12.2264 18.2382 12.1575 18.2382 12.0733C18.2382 11.9891 18.1769 11.9241 18.0928 11.9164C18.1119 11.8208 18.131 11.7327 18.154 11.6409L19.9487 12.2226L20.8824 12.3795C20.8824 12.3795 20.8863 12.3642 20.8901 12.3565L20.0023 12.0274L18.1578 11.6332C18.1808 11.5414 18.2114 11.4496 18.242 11.3615C18.2573 11.3692 18.2803 11.373 18.2994 11.373C18.3836 11.373 18.4525 11.3041 18.4525 11.22C18.4525 11.1587 18.4142 11.1013 18.3606 11.0784C18.4027 10.9904 18.4448 10.9062 18.4907 10.8258L20.075 11.8514L20.936 12.2493C20.936 12.2493 20.9437 12.234 20.9475 12.2264L20.1745 11.6792L18.4946 10.822C18.5443 10.7416 18.5941 10.6574 18.6515 10.5809C18.6782 10.6039 18.7089 10.6115 18.7433 10.6115C18.8275 10.6115 18.9002 10.5426 18.9002 10.4584C18.9002 10.4087 18.8772 10.3628 18.839 10.336C18.9002 10.2633 18.9614 10.1982 19.0303 10.1293L20.2931 11.5299L21.024 12.1345C21.024 12.1345 21.0355 12.1231 21.0432 12.1154L20.4385 11.3883L19.038 10.1255C19.1068 10.0605 19.1757 9.99541 19.2484 9.93418C19.2752 9.96862 19.3211 9.99158 19.3709 9.99158C19.4551 9.99158 19.524 9.9227 19.524 9.83469C19.524 9.80025 19.5163 9.7658 19.4972 9.74284C19.5737 9.68927 19.6541 9.63952 19.7344 9.58977L20.5916 11.2697L21.1427 12.0427C21.1427 12.0427 21.158 12.0351 21.1656 12.0312L20.7715 11.1702L19.7459 9.58595C19.8263 9.54003 19.9105 9.49793 19.9946 9.45584C20.0176 9.51324 20.0712 9.55533 20.1401 9.55533C20.2281 9.55533 20.297 9.48645 20.297 9.40227C20.297 9.3793 20.2931 9.35634 20.2855 9.33721C20.3735 9.3066 20.4692 9.27598 20.561 9.25302L20.9552 11.0937L21.2842 11.9853C21.2842 11.9853 21.2996 11.9815 21.3072 11.9777L21.1465 11.0439L20.5648 9.2492C20.6567 9.22624 20.7447 9.20328 20.8403 9.18797C20.8518 9.2645 20.9169 9.3219 20.9934 9.3219C21.0776 9.3219 21.1503 9.25302 21.1503 9.16501C21.1503 9.15736 21.1503 9.15353 21.1503 9.14587C21.246 9.13822 21.3378 9.13439 21.4335 9.13439L21.3378 11.0171L21.4258 11.9585C21.4258 11.9585 21.4335 11.9585 21.4411 11.9585C21.4411 11.9585 21.4488 11.9585 21.4526 11.9585L21.5406 11.0171L21.445 9.13439C21.5406 9.13439 21.6363 9.14205 21.732 9.1497C21.732 9.15735 21.732 9.16118 21.732 9.16883C21.732 9.25685 21.8009 9.32573 21.8889 9.32573C21.9654 9.32573 22.0305 9.2645 22.0419 9.1918C22.1338 9.2071 22.2256 9.23006 22.3175 9.25302L21.7396 11.0478L21.5789 11.9815C21.5789 11.9815 21.5942 11.9853 21.6019 11.9891L21.931 11.1013L22.3251 9.25685C22.417 9.27981 22.5088 9.3066 22.5968 9.33721C22.5892 9.35634 22.5853 9.37548 22.5853 9.39461C22.5853 9.48263 22.6542 9.55151 22.7384 9.55151C22.8035 9.55151 22.857 9.51324 22.88 9.45584C22.968 9.49793 23.0484 9.54003 23.1326 9.58595L22.107 11.1702L21.709 12.0312C21.709 12.0312 21.7243 12.0389 21.732 12.0427L22.2792 11.2697L23.1364 9.58977C23.2167 9.6357 23.2971 9.68544 23.3736 9.73902C23.3507 9.7658 23.3392 9.79642 23.3392 9.83469C23.3392 9.91887 23.4081 9.99158 23.4923 9.99158C23.5458 9.99158 23.5879 9.96479 23.6147 9.93035C23.6874 9.99158 23.7601 10.0566 23.8252 10.1217L22.4246 11.3845L21.82 12.1116C21.82 12.1116 21.8315 12.1231 21.8391 12.1307L22.5662 11.5299L23.829 10.1293C23.8941 10.1944 23.9591 10.2633 24.0204 10.336C23.9859 10.3628 23.963 10.4087 23.963 10.4584C23.963 10.5426 24.0318 10.6153 24.1199 10.6153C24.1543 10.6153 24.1849 10.6039 24.2117 10.5847C24.2653 10.6613 24.3188 10.7416 24.3648 10.822L22.6848 11.683L21.9157 12.2302C21.9157 12.2302 21.9233 12.2455 21.9271 12.2532L22.7843 11.859L24.3686 10.8335C24.4183 10.9215 24.4643 11.0095 24.5064 11.1013C24.449 11.1243 24.4107 11.1817 24.4107 11.2467C24.4107 11.3309 24.4796 11.3998 24.5638 11.3998C24.5829 11.3998 24.602 11.3998 24.6212 11.3883C24.6518 11.4725 24.6786 11.5605 24.7015 11.6447L22.857 12.0389L21.9731 12.3642C21.9731 12.3642 21.9769 12.3795 21.9807 12.3871L22.9106 12.2302L24.7053 11.6486C24.7283 11.7366 24.7513 11.8284 24.7666 11.9241C24.69 11.9356 24.6326 12.0006 24.6326 12.0771C24.6326 12.1613 24.7015 12.2302 24.7857 12.2302H24.801C24.8087 12.3221 24.8163 12.4177 24.8163 12.5134L22.9336 12.4177L21.996 12.5057C21.996 12.5057 21.996 12.5134 21.996 12.5172C21.996 12.521 21.996 12.5249 21.996 12.5287L22.9336 12.6167L24.8163 12.521C24.8163 12.6167 24.8087 12.7124 24.801 12.8042L24.7972 12.7927ZM21.8659 12.5019C21.8659 12.5402 21.8544 12.5746 21.843 12.6091C21.8315 12.6473 21.82 12.6779 21.8009 12.7124C21.7817 12.7468 21.7626 12.7813 21.7358 12.8081C21.709 12.8348 21.6746 12.854 21.644 12.8693C21.6133 12.8884 21.5789 12.8999 21.5406 12.9114C21.5062 12.919 21.4718 12.9343 21.4335 12.9343C21.3952 12.9343 21.3608 12.9229 21.3225 12.9114C21.2842 12.8999 21.2498 12.8884 21.2192 12.8693C21.1886 12.8501 21.1541 12.8348 21.1274 12.8081C21.1006 12.7813 21.0814 12.7468 21.0661 12.7162C21.047 12.6856 21.0355 12.6512 21.024 12.6129C21.0164 12.5784 21.0011 12.544 21.0011 12.5057C21.0011 12.3871 21.0508 12.28 21.1274 12.1996C21.1809 12.146 21.2498 12.1154 21.3225 12.0963C21.357 12.0848 21.3952 12.0733 21.4335 12.0733C21.4718 12.0733 21.5062 12.0848 21.5406 12.0963C21.5789 12.1078 21.6133 12.1192 21.644 12.1384C21.6746 12.1575 21.709 12.1728 21.7358 12.1996C21.7626 12.2264 21.7817 12.2608 21.8009 12.2953C21.82 12.3259 21.8315 12.3603 21.843 12.3948C21.8544 12.4292 21.8659 12.4675 21.8659 12.5057V12.5019Z" fill="#16007E"/>
</g>
</svg>
