<svg width="78" height="77" viewBox="0 0 78 77" fill="none" xmlns="http://www.w3.org/2000/svg">
<g filter="url(#filter0_d_4_606)">
<circle cx="27" cy="27" r="27" transform="matrix(-1 0 0 1 66 10.8931)" fill="#FFF5F5"/>
</g>
<path d="M26.9393 38.9537C26.3536 38.3679 26.3536 37.4182 26.9393 36.8324L36.4853 27.2865C37.0711 26.7007 38.0208 26.7007 38.6066 27.2865C39.1924 27.8723 39.1924 28.822 38.6066 29.4078L30.1213 37.8931L38.6066 46.3783C39.1924 46.9641 39.1924 47.9139 38.6066 48.4997C38.0208 49.0855 37.0711 49.0855 36.4853 48.4997L26.9393 38.9537ZM53 39.3931L28 39.3931L28 36.3931L53 36.3931L53 39.3931Z" fill="#FF5314"/>
<defs>
<filter id="filter0_d_4_606" x="0.9" y="0.793066" width="76.2" height="76.2" filterUnits="userSpaceOnUse" color-interpolation-filters="sRGB">
<feFlood flood-opacity="0" result="BackgroundImageFix"/>
<feColorMatrix in="SourceAlpha" type="matrix" values="0 0 0 0 0 0 0 0 0 0 0 0 0 0 0 0 0 0 127 0" result="hardAlpha"/>
<feMorphology radius="1" operator="dilate" in="SourceAlpha" result="effect1_dropShadow_4_606"/>
<feOffset dy="1"/>
<feGaussianBlur stdDeviation="5.05"/>
<feComposite in2="hardAlpha" operator="out"/>
<feColorMatrix type="matrix" values="0 0 0 0 0 0 0 0 0 0 0 0 0 0 0 0 0 0 0.25 0"/>
<feBlend mode="normal" in2="BackgroundImageFix" result="effect1_dropShadow_4_606"/>
<feBlend mode="normal" in="SourceGraphic" in2="effect1_dropShadow_4_606" result="shape"/>
</filter>
</defs>
</svg>
