<?xml version="1.0" encoding="UTF-8"?>
<svg id="Layer_1" data-name="Layer 1" xmlns="http://www.w3.org/2000/svg" viewBox="0 0 697.82 141.4">
  <defs>
    <style>
      .cls-1 {
        fill: #fff;
        stroke-width: 0px;
      }
    </style>
  </defs>
  <path class="cls-1" d="m143.26,100.82c6.02-3.13,9.39-9.03,9.39-14.22v-22.65c0-7.47-1.81-14.21-9.39-15.3v-3.61c9.28-.72,21.56-4.1,28.79-8.43l2.65,1.81-.12,48.18c0,5.18,3.26,11.2,9.16,14.22v3.61h-40.48v-3.61h0Z"/>
  <path class="cls-1" d="m194.82,86.6v-22.65c0-7.47-1.81-14.21-9.4-15.3v-3.61c9.28-.72,21.56-4.1,28.79-8.43l2.65,1.81v5.78c5.66-5.18,13.86-7.71,21.32-7.71,12.17,0,23.25,5.66,23.25,19.27v30.84c0,5.9,3.97,11.56,9.15,14.22v3.61h-40.48v-3.61c5.18-2.65,9.4-8.19,9.4-14.22v-26.14c0-8.31-2.89-15.06-12.17-15.06-4.94,0-6.99,1.32-10.48,4.58l-.12,36.62c0,5.18,3.25,11.2,9.15,14.22v3.61h-40.48v-3.61c6.02-3.13,9.4-9.03,9.4-14.22h.02Z"/>
  <path class="cls-1" d="m274.2,15.77v-3.61c9.15-.36,21.56-4.1,28.79-8.43l2.65,1.81-.12,67.1,14.33-16.14c5.3-6.02,5.18-6.26.12-7.95v-3.61h28.79v3.61c-6.86,1.45-19.28,5.78-22.89,9.4l14.94,28.55c5.54,10.72,6.86,12.17,12.28,14.33v3.61h-33.97v-3.61c3.25-3.37,3.73-6.87,1.32-11.81l-8.19-16.86-6.74,6.99v7.47c0,5.18,3.25,11.2,9.15,14.22v3.61h-40.48v-3.61c6.02-3.13,9.39-9.03,9.39-14.22v-52.16c0-7.47-1.81-17.59-9.39-18.67l.02-.02Z"/>
  <path class="cls-1" d="m394.17,44.92v3.61c-7.11,2.53-7.23,4.94-4.94,9.03l14.58,26.14,9.88-22.53-2.53-4.94c-2.53-4.94-5.9-5.3-12.53-7.71v-3.61h41.08v3.61c-7.11,2.53-7.23,4.94-4.94,9.03l14.58,26.14,10.48-23.85c3.13-7.23.36-9.16-6.02-11.32v-3.61h29.15v3.61c-6.63,1.08-13.25,2.29-18.55,13.49l-20,42.4h-8.43l-19.39-37.58-17.71,37.58h-8.43l-24.81-48.19c-2.53-4.94-5.9-5.3-12.53-7.71v-3.61h41.08l-.02.02Z"/>
  <path class="cls-1" d="m496.37,86.6v-22.65c0-7.47-1.81-14.21-9.39-15.3v-3.61c9.28-.72,21.56-4.1,28.79-8.43l2.65,1.81-.12,48.18c0,5.18,3.25,11.2,9.15,14.22v3.61h-40.48v-3.61c6.02-3.13,9.39-9.03,9.39-14.22h0Zm7.11-51.43c-6.75,0-14.1-4.58-12.17-13.61C494.92,4.94,513.59.12,527.21,0c19.64-.24,33.85,9.15,33.85,36.5v7.71c5.66-5.18,13.85-7.71,21.32-7.71,12.17,0,23.25,5.66,23.25,19.27v30.84c0,5.9,3.97,11.56,9.15,14.22v3.61h-40.48v-3.61c5.18-2.65,9.39-8.19,9.39-14.22v-26.14c0-8.31-2.89-15.06-12.16-15.06-4.94,0-6.99,1.32-10.48,4.58l-.12,36.62c0,5.18,3.26,11.2,9.16,14.22v3.61h-40.48v-3.61c6.02-3.13,9.39-9.03,9.39-14.22v-22.65c0-7.47-1.81-14.21-9.39-15.3v-3.61c11.32-.24,24.57-.84,24.81-16.38.12-13.25-9.52-23.13-22.88-22.65-13.37.6-16.99,11.08-18.07,22.04-.48,4.7-5.06,7.11-10,7.11h0Z"/>
  <path class="cls-1" d="m618.64,124.79c0-7.71,6.14-10.36,11.56-10.36,4.34,0,8.31,1.68,8.31,3.73,0,11.69,3.37,18.31,17.23,18.31,5.54,0,13.13-2.17,13.73-8.55.48-5.3-3.97-8.19-9.15-9.27-11.2-2.17-39.75-3.49-39.75-17.35v-3.49c3.97-2.05,9.76-5.9,12.77-10.24-7.59-4.1-13.01-11.2-13.01-22.89,0-20.12,17.35-28.19,33.01-28.19,6.02,0,11.68,1.08,16.62,3.25,1.68-14.21,10.6-20.6,18.07-20.12,13.97.72,11.92,18.91.6,18.91-1.32,0-2.65-.24-4.1-.72-1.2-.36-2.29-.6-3.37-.6-3.13,0-5.42,1.81-6.39,5.3,6.86,4.7,11.32,12.17,11.32,22.41,0,20.24-17.1,27.1-32.77,27.1-5.18,0-10.6-.72-15.42-2.41-1.56.72-2.89,2.05-2.53,3.73,1.21,4.7,25.78.12,41.32,6.26,12.28,4.82,14.7,18.79,7.95,29.03-6.26,9.4-19.64,12.77-32.88,12.77-10.6,0-33.13-2.53-33.13-16.62h.01Zm24.57-60.23c0,10.72,2.53,22.65,10.12,22.65s9.88-12.77,9.88-22.65c0-11.68-2.65-23.25-9.88-23.25s-10.12,11.56-10.12,23.25Z"/>
  <path class="cls-1" d="m158.76,6.42c-1.81,0-3.73.24-5.9.84-20.36,5.3-27.94,33.01-35.65,50.59l-8.84,20.11-19.59-46.65c-1.69-4.09-.24-12.77,6.63-15.42.12-.12.36-.12.48-.12v-3.61h-44.45v3.61c6.63,2.41,10.48,9.4,12.53,14.22l5.9,14.21-12.89,33.85-19.63-46.74c-1.69-4.09-.24-13.01,6.86-15.54v-3.61H0v3.61c6.63,2.41,10.48,9.4,12.53,14.22l30.96,74.44h8.43l20.72-53.48,22.28,53.48h8.43l11.52-29.7,7.4-15.67c5.66-11.93,11.32-25.3,23.85-29.39,2.29-.84,4.34-1.08,6.02-1.08,3.62,0,6.26,1.08,8.68.96,14.45-1.2,14.45-23.13-2.05-23.13h-.01Z"/>
</svg>