<svg width="51" height="50" viewBox="0 0 51 50" fill="none" xmlns="http://www.w3.org/2000/svg">
<g clip-path="url(#clip0_420_350)">
<path d="M21.46 0C21.1947 0 20.9404 0.105357 20.7529 0.292893C20.5653 0.48043 20.46 0.734784 20.46 1V3C20.46 3.26522 20.5653 3.51957 20.7529 3.70711C20.9404 3.89464 21.1947 4 21.46 4H22.96V6.6475C12.142 7.8925 3.70996 17.1045 3.70996 28.25C3.70996 40.2415 13.4685 50 25.46 50C37.4515 50 47.21 40.2415 47.21 28.25C47.214 24.1456 46.0485 20.125 43.85 16.659L45.969 14.9435L46.913 16.1095C46.9956 16.2116 47.0975 16.2965 47.2128 16.3592C47.3282 16.4219 47.4548 16.4613 47.5855 16.4751C47.7161 16.4889 47.8481 16.4768 47.974 16.4395C48.1 16.4023 48.2174 16.3406 48.3195 16.258L49.8745 14.999C50.0803 14.832 50.2114 14.5901 50.239 14.3264C50.2666 14.0628 50.1883 13.799 50.0215 13.593L44.9875 7.375C44.9049 7.27289 44.803 7.18805 44.6876 7.12532C44.5722 7.0626 44.4456 7.02321 44.315 7.00942C44.1844 6.99563 44.0523 7.00771 43.9264 7.04495C43.8004 7.0822 43.6831 7.14389 43.581 7.2265L42.026 8.4855C41.8201 8.65251 41.689 8.89443 41.6614 9.15807C41.6339 9.42172 41.7121 9.68552 41.879 9.8915L42.8235 11.0575L40.7135 12.7645C37.345 9.4455 32.9015 7.2175 27.96 6.6485V4H29.46C29.7252 4 29.9795 3.89464 30.1671 3.70711C30.3546 3.51957 30.46 3.26522 30.46 3V1C30.46 0.734784 30.3546 0.48043 30.1671 0.292893C29.9795 0.105357 29.7252 0 29.46 0L21.46 0ZM25.46 10C35.56 10 43.71 18.15 43.71 28.25C43.71 38.35 35.56 46.5 25.46 46.5C15.36 46.5 7.20996 38.35 7.20996 28.25C7.20996 18.15 15.36 10 25.46 10ZM25.461 13.7215L25.46 28.25L37.077 36.9735C38.6972 34.8154 39.6844 32.2487 39.928 29.5611C40.1716 26.8735 39.6618 24.1712 38.456 21.757C37.2497 19.3431 35.395 17.3128 33.0998 15.8936C30.8046 14.4744 28.1595 13.722 25.461 13.7215Z" fill="black"/>
</g>
<defs>
<clipPath id="clip0_420_350">
<rect width="50" height="50" fill="white" transform="translate(0.459961)"/>
</clipPath>
</defs>
</svg>
