<svg width="51" height="50" viewBox="0 0 51 50" fill="none" xmlns="http://www.w3.org/2000/svg">
<path fill-rule="evenodd" clip-rule="evenodd" d="M18.1681 2.08334C16.9379 2.08309 15.7276 2.39411 14.6499 2.98744C13.5722 3.58078 12.6621 4.43714 12.0044 5.47681C11.3468 6.51649 10.9628 7.70566 10.8883 8.93364C10.8139 10.1616 11.0513 11.3885 11.5785 12.5H6.7098C6.15726 12.5 5.62736 12.7195 5.23666 13.1102C4.84596 13.5009 4.62646 14.0308 4.62646 14.5833V22.9167C4.62646 23.4692 4.84596 23.9991 5.23666 24.3898C5.62736 24.7805 6.15726 25 6.7098 25V39.5833C6.7098 41.2409 7.36828 42.8307 8.54038 44.0028C9.71248 45.1749 11.3022 45.8333 12.9598 45.8333H37.9598C39.6174 45.8333 41.2071 45.1749 42.3792 44.0028C43.5513 42.8307 44.2098 41.2409 44.2098 39.5833V25C44.7623 25 45.2922 24.7805 45.6829 24.3898C46.0736 23.9991 46.2931 23.4692 46.2931 22.9167V14.5833C46.2931 14.0308 46.0736 13.5009 45.6829 13.1102C45.2922 12.7195 44.7623 12.5 44.2098 12.5H39.341C39.8683 11.3885 40.1057 10.1616 40.0313 8.93364C39.9568 7.70566 39.5728 6.51649 38.9152 5.47681C38.2575 4.43714 37.3474 3.58078 36.2697 2.98744C35.192 2.39411 33.9817 2.08309 32.7515 2.08334C31.3534 2.0832 29.973 2.39575 28.7113 2.9981C27.4497 3.60045 26.3387 4.47735 25.4598 5.56459C24.5809 4.47735 23.4699 3.60045 22.2083 2.9981C20.9466 2.39575 19.5662 2.0832 18.1681 2.08334ZM27.5431 41.6667H37.9598C38.5123 41.6667 39.0422 41.4472 39.4329 41.0565C39.8236 40.6658 40.0431 40.1359 40.0431 39.5833V25H27.5431V41.6667ZM23.3765 25V41.6667H12.9598C12.4073 41.6667 11.8774 41.4472 11.4867 41.0565C11.096 40.6658 10.8765 40.1359 10.8765 39.5833V25H23.3765ZM32.7515 12.5C33.5803 12.5 34.3751 12.1708 34.9612 11.5847C35.5472 10.9987 35.8765 10.2038 35.8765 9.37501C35.8765 8.54621 35.5472 7.75135 34.9612 7.1653C34.3751 6.57925 33.5803 6.25001 32.7515 6.25001C31.3701 6.25001 30.0454 6.79874 29.0686 7.7755C28.0919 8.75225 27.5431 10.077 27.5431 11.4583V12.5H32.7515ZM23.3765 12.5V11.4583C23.3765 10.077 22.8277 8.75225 21.851 7.7755C20.8742 6.79874 19.5495 6.25001 18.1681 6.25001C17.3393 6.25001 16.5445 6.57925 15.9584 7.1653C15.3724 7.75135 15.0431 8.54621 15.0431 9.37501C15.0431 10.2038 15.3724 10.9987 15.9584 11.5847C16.5445 12.1708 17.3393 12.5 18.1681 12.5H23.3765Z" fill="black"/>
</svg>
