<svg width="276" height="25" viewBox="0 0 276 25" fill="none" xmlns="http://www.w3.org/2000/svg">
<path d="M82.0934 5.38892C82.4684 4.63892 83.5309 4.67017 83.8746 5.38892L85.9371 9.54517L90.4996 10.2014C91.3121 10.3264 91.6246 11.3264 91.0309 11.9202L87.7496 15.1389L88.5309 19.6702C88.6559 20.4827 87.7809 21.1077 87.0621 20.7327L82.9996 18.5764L78.9059 20.7327C78.1871 21.1077 77.3121 20.4827 77.4371 19.6702L78.2184 15.1389L74.9371 11.9202C74.3434 11.3264 74.6559 10.3264 75.4684 10.2014L80.0621 9.54517L82.0934 5.38892ZM100.093 5.38892C100.468 4.63892 101.531 4.67017 101.875 5.38892L103.937 9.54517L108.5 10.2014C109.312 10.3264 109.625 11.3264 109.031 11.9202L105.75 15.1389L106.531 19.6702C106.656 20.4827 105.781 21.1077 105.062 20.7327L101 18.5764L96.9059 20.7327C96.1871 21.1077 95.3121 20.4827 95.4371 19.6702L96.2184 15.1389L92.9371 11.9202C92.3434 11.3264 92.6559 10.3264 93.4684 10.2014L98.0621 9.54517L100.093 5.38892ZM118.093 5.38892C118.468 4.63892 119.531 4.67017 119.875 5.38892L121.937 9.54517L126.5 10.2014C127.312 10.3264 127.625 11.3264 127.031 11.9202L123.75 15.1389L124.531 19.6702C124.656 20.4827 123.781 21.1077 123.062 20.7327L119 18.5764L114.906 20.7327C114.187 21.1077 113.312 20.4827 113.437 19.6702L114.218 15.1389L110.937 11.9202C110.343 11.3264 110.656 10.3264 111.468 10.2014L116.062 9.54517L118.093 5.38892ZM136.093 5.38892C136.468 4.63892 137.531 4.67017 137.875 5.38892L139.937 9.54517L144.5 10.2014C145.312 10.3264 145.625 11.3264 145.031 11.9202L141.75 15.1389L142.531 19.6702C142.656 20.4827 141.781 21.1077 141.062 20.7327L137 18.5764L132.906 20.7327C132.187 21.1077 131.312 20.4827 131.437 19.6702L132.218 15.1389L128.937 11.9202C128.343 11.3264 128.656 10.3264 129.468 10.2014L134.062 9.54517L136.093 5.38892ZM154.093 5.38892C154.468 4.63892 155.531 4.67017 155.875 5.38892L157.937 9.54517L162.5 10.2014C163.312 10.3264 163.625 11.3264 163.031 11.9202L159.75 15.1389L160.531 19.6702C160.656 20.4827 159.781 21.1077 159.062 20.7327L155 18.5764L150.906 20.7327C150.187 21.1077 149.312 20.4827 149.437 19.6702L150.218 15.1389L146.937 11.9202C146.343 11.3264 146.656 10.3264 147.468 10.2014L152.062 9.54517L154.093 5.38892Z" fill="#FF4500"/>
<path d="M179.467 18.9855C178.801 18.9855 178.2 18.8529 177.666 18.5878C177.132 18.3226 176.704 17.959 176.382 17.4969C176.06 17.0347 175.884 16.5082 175.854 15.9173H177.217C177.27 16.4438 177.509 16.8794 177.933 17.2241C178.361 17.5651 178.873 17.7355 179.467 17.7355C179.945 17.7355 180.369 17.6238 180.74 17.4003C181.115 17.1768 181.409 16.87 181.621 16.4798C181.837 16.0859 181.945 15.6408 181.945 15.1446C181.945 14.637 181.833 14.1844 181.609 13.7866C181.39 13.3851 181.087 13.0688 180.7 12.8378C180.314 12.6067 179.873 12.4893 179.377 12.4855C179.02 12.4817 178.655 12.5366 178.28 12.6503C177.905 12.7601 177.596 12.9022 177.354 13.0764L176.036 12.9173L176.74 7.19005H182.786V8.44005H177.922L177.513 11.8719H177.581C177.82 11.6825 178.119 11.5253 178.479 11.4003C178.839 11.2753 179.214 11.2128 179.604 11.2128C180.316 11.2128 180.95 11.3832 181.507 11.7241C182.068 12.0613 182.507 12.5234 182.825 13.1105C183.147 13.6976 183.308 14.3681 183.308 15.1219C183.308 15.8643 183.142 16.5272 182.808 17.1105C182.479 17.6901 182.024 18.1484 181.445 18.4855C180.865 18.8188 180.206 18.9855 179.467 18.9855ZM189.702 6.6446L185.952 20.5764H184.725L188.475 6.6446H189.702ZM194.905 18.9855C194.238 18.9855 193.638 18.8529 193.104 18.5878C192.57 18.3226 192.142 17.959 191.82 17.4969C191.498 17.0347 191.322 16.5082 191.291 15.9173H192.655C192.708 16.4438 192.947 16.8794 193.371 17.2241C193.799 17.5651 194.31 17.7355 194.905 17.7355C195.382 17.7355 195.806 17.6238 196.178 17.4003C196.553 17.1768 196.846 16.87 197.058 16.4798C197.274 16.0859 197.382 15.6408 197.382 15.1446C197.382 14.637 197.27 14.1844 197.047 13.7866C196.827 13.3851 196.524 13.0688 196.138 12.8378C195.752 12.6067 195.31 12.4893 194.814 12.4855C194.458 12.4817 194.092 12.5366 193.717 12.6503C193.342 12.7601 193.034 12.9022 192.791 13.0764L191.473 12.9173L192.178 7.19005H198.223V8.44005H193.359L192.95 11.8719H193.019C193.257 11.6825 193.556 11.5253 193.916 11.4003C194.276 11.2753 194.651 11.2128 195.041 11.2128C195.753 11.2128 196.388 11.3832 196.945 11.7241C197.505 12.0613 197.945 12.5234 198.263 13.1105C198.585 13.6976 198.746 14.3681 198.746 15.1219C198.746 15.8643 198.579 16.5272 198.246 17.1105C197.916 17.6901 197.462 18.1484 196.882 18.4855C196.303 18.8188 195.644 18.9855 194.905 18.9855Z" fill="#FF4500"/>
</svg>
