<svg width="30" height="57" viewBox="0 0 30 57" fill="none" xmlns="http://www.w3.org/2000/svg">
<path d="M15 42.487C14.7098 42.487 14.4643 42.3804 14.2634 42.1674L3.81696 31.4796C3.70536 31.3849 3.5519 31.231 3.35658 31.018C3.16127 30.8049 2.85156 30.4173 2.42746 29.8551C2.00335 29.2929 1.62388 28.7159 1.28906 28.1241C0.954241 27.5323 0.655692 26.8162 0.393415 25.9759C0.131138 25.1355 0 24.3188 0 23.5258C0 20.9219 0.708705 18.8861 2.12612 17.4185C3.54353 15.9508 5.50223 15.217 8.00223 15.217C8.6942 15.217 9.40011 15.3442 10.12 15.5987C10.8398 15.8532 11.5095 16.1964 12.1289 16.6284C12.7483 17.0605 13.2812 17.4658 13.7277 17.8446C14.1741 18.2233 14.5982 18.6258 15 19.0518C15.4018 18.6258 15.8259 18.2233 16.2723 17.8446C16.7187 17.4658 17.2517 17.0605 17.8711 16.6284C18.4905 16.1964 19.1602 15.8532 19.88 15.5987C20.5999 15.3442 21.3058 15.217 21.9978 15.217C24.4978 15.217 26.4565 15.9508 27.8739 17.4185C29.2913 18.8861 30 20.9219 30 23.5258C30 26.1416 28.7221 28.8046 26.1663 31.5151L15.7366 42.1674C15.5357 42.3804 15.2902 42.487 15 42.487Z" fill="#FF5D22"/>
</svg>
