<svg width="116" height="29" viewBox="0 0 116 29" fill="none" xmlns="http://www.w3.org/2000/svg">
<g clip-path="url(#clip0_4_814)">
<path d="M30.479 10.3026H42.2224V12.4544H37.6056V24.5532H35.0652V12.4544H30.4683V10.3018H30.4782L30.479 10.3026ZM41.7211 14.2342H43.8919V16.226H43.9325C44.0046 15.9443 44.1372 15.6726 44.3319 15.4107C44.7483 14.8495 45.3118 14.4145 45.9601 14.1538C46.2893 14.0233 46.6399 13.955 46.9941 13.9524C47.2593 13.9524 47.4548 13.9624 47.5575 13.9732C47.6595 13.9831 47.7614 14.003 47.8741 14.0129V16.2053C47.7078 16.1762 47.5406 16.1528 47.3728 16.1349C47.2061 16.1152 47.0385 16.1052 46.8707 16.1051C46.4812 16.1051 46.1133 16.1854 45.7653 16.3371C45.4173 16.487 45.1199 16.7182 44.8647 17.0107C44.5924 17.3377 44.3839 17.7129 44.2499 18.1168C44.0966 18.5593 44.0245 19.0614 44.0245 19.6356V24.5432H41.7111V14.2342H41.7211ZM58.5121 24.554H56.2393V23.1156H56.1979C55.9112 23.6393 55.4919 24.0519 54.9285 24.3634C54.3651 24.675 53.7917 24.8357 53.2084 24.8357C51.8264 24.8357 50.8221 24.5043 50.209 23.8298C49.5942 23.1562 49.2868 22.1404 49.2868 20.7824V14.235H51.601V20.5611C51.601 21.4668 51.775 22.1106 52.1337 22.4826C52.4817 22.8546 52.983 23.046 53.6177 23.046C54.1091 23.046 54.5084 22.9756 54.8357 22.824C55.1638 22.6732 55.4298 22.4826 55.6245 22.2307C55.8292 21.9896 55.9725 21.688 56.0653 21.3458C56.1565 21.0036 56.1979 20.6316 56.1979 20.2297V14.2449H58.5121V24.554ZM62.4536 21.2455C62.5257 21.9084 62.7809 22.3724 63.2217 22.6433C63.6716 22.9052 64.2044 23.046 64.8291 23.046C65.0445 23.046 65.2898 23.0253 65.5666 22.9955C65.8425 22.9648 66.1084 22.8944 66.3446 22.8049C66.5898 22.7138 66.7837 22.5729 66.9478 22.3923C67.1019 22.21 67.1731 21.9796 67.1632 21.688C67.1619 21.5526 67.132 21.4191 67.0757 21.296C67.0193 21.1729 66.9376 21.0631 66.8359 20.9738C66.6304 20.7832 66.3752 20.6423 66.0571 20.5214C65.7026 20.3986 65.3399 20.3011 64.9716 20.2297C64.5623 20.1493 64.153 20.0582 63.7337 19.9679C63.3114 19.8765 62.8943 19.7623 62.4843 19.6257C62.0997 19.5024 61.737 19.3193 61.4096 19.083C61.0905 18.8603 60.8304 18.5634 60.6515 18.2179C60.4576 17.8658 60.3648 17.4333 60.3648 16.9104C60.3648 16.347 60.5081 15.8847 60.7849 15.5019C61.064 15.1223 61.4244 14.8098 61.8396 14.5871C62.2859 14.3512 62.7657 14.1849 63.2623 14.0941C63.7843 14.0038 64.2864 13.9533 64.757 13.9533C65.2997 13.9533 65.8217 14.0138 66.3139 14.1248C66.7904 14.2268 67.2446 14.414 67.6545 14.6774C68.0539 14.9293 68.3812 15.2608 68.648 15.6634C68.914 16.0653 69.078 16.5583 69.1493 17.1317H66.7332C66.6205 16.589 66.3744 16.2169 65.9759 16.0355C65.5765 15.8449 65.1158 15.7538 64.6037 15.7538C64.4397 15.7538 64.245 15.7637 64.0204 15.7944C63.8041 15.8231 63.5911 15.8737 63.3849 15.9452C63.1964 16.0146 63.0253 16.1243 62.8836 16.2666C62.8148 16.3409 62.7613 16.428 62.7262 16.523C62.6911 16.618 62.6751 16.719 62.679 16.8201C62.679 17.1018 62.7809 17.3231 62.9756 17.4938C63.1703 17.6644 63.4263 17.8053 63.7437 17.9263C64.061 18.0373 64.4198 18.1376 64.8291 18.2179C65.2384 18.2983 65.6577 18.3886 66.0886 18.4798C66.5078 18.5701 66.9171 18.691 67.3273 18.8211C67.7366 18.952 68.0945 19.1335 68.4127 19.3647C68.73 19.5958 68.9861 19.8776 69.1799 20.2198C69.3747 20.5611 69.4774 20.9936 69.4774 21.4966C69.4774 22.1097 69.3341 22.6234 69.0466 23.056C68.7607 23.4785 68.392 23.8298 67.9412 24.0917C67.4694 24.3635 66.9581 24.5603 66.4258 24.675C65.8842 24.7941 65.3314 24.8547 64.7769 24.8556C64.1559 24.8626 63.5367 24.7882 62.935 24.6344C62.3716 24.4836 61.8802 24.2624 61.4709 23.9715C61.0664 23.6776 60.7338 23.2957 60.4982 22.8546C60.2629 22.4122 60.1394 21.8786 60.1195 21.2654H62.4536V21.2455ZM70.0914 14.2358H71.8421V11.137H74.1563V14.2358H76.2443V15.9344H74.1572V21.4469C74.1572 21.6872 74.1671 21.8893 74.1878 22.07C74.2077 22.2415 74.2591 22.3923 74.3312 22.5124C74.4095 22.6386 74.5284 22.7345 74.6684 22.7842C74.8225 22.8447 75.0164 22.8753 75.2832 22.8753C75.4464 22.8753 75.6105 22.8753 75.7746 22.8646C75.9386 22.8546 76.1018 22.8347 76.2659 22.7941V24.554C76.0099 24.5847 75.7538 24.6046 75.5185 24.6344C75.2705 24.6632 75.0209 24.6768 74.7711 24.675C74.1572 24.675 73.6658 24.6145 73.2963 24.5043C72.9284 24.3933 72.631 24.2226 72.4263 24.0014C72.2109 23.7801 72.0783 23.5084 71.9963 23.1761C71.9165 22.8024 71.8721 22.4221 71.8637 22.0401V15.9534H70.1129V14.2333H70.0922L70.0914 14.2358ZM77.8824 14.2358H80.074V15.6328H80.1154C80.4419 15.0296 80.8926 14.607 81.4759 14.346C82.0722 14.0809 82.7184 13.947 83.3709 13.9533C84.1995 13.9533 84.9162 14.0941 85.531 14.3858C86.145 14.6675 86.657 15.0602 87.0663 15.5624C87.4756 16.0653 87.7731 16.6486 87.9778 17.3131C88.1863 18.0044 88.2899 18.723 88.2852 19.445C88.2852 20.1386 88.1932 20.8122 88.0084 21.4568C87.8387 22.0786 87.5577 22.6645 87.179 23.186C86.8068 23.6888 86.3233 24.0986 85.7663 24.3833C85.1929 24.6849 84.5276 24.8357 83.7496 24.8357C83.4095 24.8354 83.0701 24.8049 82.7354 24.7446C82.4015 24.6844 82.0755 24.5869 81.7635 24.4538C81.4535 24.3244 81.1636 24.1514 80.9026 23.94C80.645 23.7345 80.4205 23.4906 80.2372 23.2167H80.1958V28.3663H77.8824V14.2342V14.2358ZM85.971 19.4044C85.9714 18.9458 85.9095 18.4892 85.787 18.0472C85.6736 17.6285 85.4861 17.2334 85.2335 16.8806C84.9938 16.545 84.6829 16.2666 84.3229 16.0653C83.9363 15.8564 83.5029 15.7492 83.0635 15.7538C82.0907 15.7538 81.3533 16.0852 80.862 16.7497C80.3706 17.4134 80.1245 18.2991 80.1245 19.4044C80.1245 19.9273 80.1867 20.4103 80.3193 20.8528C80.4518 21.2952 80.6366 21.678 80.9026 21.9995C81.1594 22.3218 81.466 22.5729 81.8248 22.7535C82.1827 22.9449 82.6028 23.0352 83.0734 23.0352C83.6062 23.0352 84.0462 22.925 84.4149 22.7138C84.7719 22.5083 85.0794 22.2269 85.3156 21.8893C85.5509 21.5471 85.7257 21.1643 85.8276 20.7326C85.9218 20.2962 85.9699 19.851 85.971 19.4044ZM90.0558 10.3026H92.37V12.4552H90.0558V10.3026ZM90.0558 14.235H92.37V24.554H90.0558V14.235ZM94.4381 10.3026H96.7523V24.554H94.4381V10.3026ZM103.847 24.8357C103.007 24.8357 102.26 24.6949 101.605 24.4239C100.978 24.1665 100.41 23.783 99.9365 23.2971C99.4764 22.8013 99.1241 22.2157 98.9016 21.577C98.6581 20.8719 98.537 20.1304 98.5437 19.3846C98.5437 18.5999 98.6663 17.8766 98.9016 17.212C99.1242 16.5737 99.4766 15.9883 99.9365 15.4928C100.386 15.0097 100.95 14.6377 101.605 14.3659C102.26 14.0941 103.007 13.9533 103.847 13.9533C104.687 13.9533 105.434 14.0941 106.089 14.3659C106.745 14.6377 107.298 15.0205 107.758 15.4928C108.218 15.9881 108.57 16.5735 108.792 17.212C109.028 17.8757 109.15 18.5999 109.15 19.3846C109.15 20.18 109.028 20.9133 108.792 21.577C108.57 22.2158 108.218 22.8015 107.758 23.2971C107.307 23.7801 106.745 24.1522 106.089 24.4239C105.434 24.6949 104.687 24.8357 103.847 24.8357ZM103.847 23.0352C104.359 23.0352 104.809 22.925 105.188 22.7138C105.557 22.5083 105.876 22.223 106.12 21.8786C106.365 21.5372 106.539 21.1444 106.663 20.7119C106.776 20.2794 106.837 19.837 106.837 19.3846C106.837 18.9421 106.776 18.5096 106.663 18.0671C106.557 17.6474 106.373 17.2516 106.12 16.9005C105.875 16.5594 105.557 16.2776 105.188 16.0761C104.809 15.8648 104.359 15.7538 103.847 15.7538C103.335 15.7538 102.885 15.8648 102.506 16.0761C102.14 16.2807 101.822 16.5619 101.575 16.9005C101.325 17.2537 101.141 17.6488 101.032 18.0671C100.918 18.4972 100.86 18.9398 100.857 19.3846C100.857 19.837 100.919 20.2794 101.032 20.7119C101.145 21.1444 101.329 21.5372 101.575 21.8786C101.82 22.2208 102.127 22.5025 102.506 22.7138C102.885 22.935 103.335 23.0352 103.847 23.0352ZM109.826 14.2358H111.577V11.137H113.891V14.2358H115.979V15.9344H113.891V21.4469C113.891 21.6872 113.901 21.8893 113.921 22.07C113.942 22.2415 113.993 22.3923 114.065 22.5124C114.143 22.6388 114.262 22.7347 114.403 22.7842C114.557 22.8447 114.751 22.8753 115.017 22.8753C115.181 22.8753 115.345 22.8753 115.509 22.8646C115.673 22.8546 115.836 22.8347 116 22.7941V24.554C115.744 24.5847 115.488 24.6046 115.253 24.6344C115.005 24.6632 114.755 24.6768 114.505 24.675C113.891 24.675 113.399 24.6145 113.03 24.5043C112.663 24.3933 112.365 24.2226 112.16 24.0014C111.946 23.7801 111.812 23.5084 111.73 23.1761C111.651 22.8024 111.606 22.4221 111.598 22.0401V15.9534H109.847V14.2333H109.826V14.2358Z" fill="white"/>
<path d="M27.7762 10.3019H17.1697L13.8935 0.384766L10.6057 10.3028L0 10.292L8.5898 16.4267L5.30369 26.3331L13.8935 20.2083L22.4733 26.3331L19.1972 16.4267L27.7762 10.3019Z" fill="#04DA8D"/>
<path d="M19.9338 18.6707L19.1964 16.4277L13.8936 20.2093L19.9338 18.6707Z" fill="white"/>
</g>
<defs>
<clipPath id="clip0_4_814">
<rect width="116" height="28.1714" fill="white" transform="translate(0 0.384766)"/>
</clipPath>
</defs>
</svg>
