<svg width="10" height="14" viewBox="0 0 10 14" fill="none" xmlns="http://www.w3.org/2000/svg">
<path d="M3.71276 2.98148C3.71276 3.47644 4.114 3.87768 4.60895 3.87768C5.10391 3.87768 5.50515 3.47644 5.50515 2.98148V2.84383C5.50515 2.27285 5.96802 1.80998 6.539 1.80998H7.50451C7.88516 1.80998 8.19374 1.5014 8.19374 1.12075C8.19374 0.740098 7.88516 0.431519 7.50451 0.431519H1.7134C1.33275 0.431519 1.02417 0.740098 1.02417 1.12075C1.02417 1.5014 1.33275 1.80998 1.7134 1.80998H2.67891C3.24989 1.80998 3.71276 2.27285 3.71276 2.84383V2.98148Z" fill="#757575"/>
<path d="M3.71276 2.98148C3.71276 3.47644 4.114 3.87768 4.60895 3.87768C5.10391 3.87768 5.50515 3.47644 5.50515 2.98148V2.84383C5.50515 2.27285 5.96802 1.80998 6.539 1.80998H7.50451C7.88516 1.80998 8.19374 1.5014 8.19374 1.12075C8.19374 0.740098 7.88516 0.431519 7.50451 0.431519H1.7134C1.33275 0.431519 1.02417 0.740098 1.02417 1.12075C1.02417 1.5014 1.33275 1.80998 1.7134 1.80998H2.67891C3.24989 1.80998 3.71276 2.27285 3.71276 2.84383V2.98148Z" stroke="black"/>
<path d="M7.68168 4.73926H1.53634C1.12887 4.73926 0.738102 4.86893 0.449983 5.09974C0.161864 5.33056 0 5.64361 0 5.97003V11.5085C0 11.8349 0.161864 12.148 0.449983 12.3788C0.664791 12.5509 0.936659 12.6667 1.22996 12.7146C1.39768 12.7419 1.53634 12.877 1.53634 13.047C1.53634 13.2169 1.6741 13.3547 1.84403 13.3547H2.76498C2.93491 13.3547 3.07267 13.2169 3.07267 13.047C3.07267 12.877 3.21043 12.7393 3.38037 12.7393H5.83765C6.00759 12.7393 6.14535 12.877 6.14535 13.047C6.14535 13.2169 6.2831 13.3547 6.45304 13.3547H7.37399C7.54392 13.3547 7.68168 13.2169 7.68168 13.047C7.68168 12.877 7.82034 12.7419 7.98806 12.7146C8.28136 12.6667 8.55323 12.5509 8.76804 12.3788C9.05615 12.148 9.21802 11.8349 9.21802 11.5085V5.97003C9.21802 5.64361 9.05615 5.33056 8.76804 5.09974C8.47992 4.86893 8.08914 4.73926 7.68168 4.73926ZM7.68168 7.2008V8.04749C7.68168 8.25961 7.50972 8.43157 7.2976 8.43157C7.08547 8.43157 6.91351 8.25961 6.91351 8.04749V7.81618C6.91351 7.47632 6.638 7.2008 6.29813 7.2008H1.84403C1.67409 7.2008 1.53634 7.06304 1.53634 6.89311C1.53634 6.72317 1.6741 6.58541 1.84403 6.58541H7.0663C7.40616 6.58541 7.68168 6.86093 7.68168 7.2008Z" fill="#757575"/>
<path d="M7.68168 4.73926H1.53634C1.12887 4.73926 0.738102 4.86893 0.449983 5.09974C0.161864 5.33056 0 5.64361 0 5.97003V11.5085C0 11.8349 0.161864 12.148 0.449983 12.3788C0.664791 12.5509 0.936659 12.6667 1.22996 12.7146C1.39768 12.7419 1.53634 12.877 1.53634 13.047C1.53634 13.2169 1.6741 13.3547 1.84403 13.3547H2.76498C2.93491 13.3547 3.07267 13.2169 3.07267 13.047C3.07267 12.877 3.21043 12.7393 3.38037 12.7393H5.83765C6.00759 12.7393 6.14535 12.877 6.14535 13.047C6.14535 13.2169 6.2831 13.3547 6.45304 13.3547H7.37399C7.54392 13.3547 7.68168 13.2169 7.68168 13.047C7.68168 12.877 7.82034 12.7419 7.98806 12.7146C8.28136 12.6667 8.55323 12.5509 8.76804 12.3788C9.05615 12.148 9.21802 11.8349 9.21802 11.5085V5.97003C9.21802 5.64361 9.05615 5.33056 8.76804 5.09974C8.47992 4.86893 8.08914 4.73926 7.68168 4.73926ZM7.68168 7.2008V8.04749C7.68168 8.25961 7.50972 8.43157 7.2976 8.43157C7.08547 8.43157 6.91351 8.25961 6.91351 8.04749V7.81618C6.91351 7.47632 6.638 7.2008 6.29813 7.2008H1.84403C1.67409 7.2008 1.53634 7.06304 1.53634 6.89311C1.53634 6.72317 1.6741 6.58541 1.84403 6.58541H7.0663C7.40616 6.58541 7.68168 6.86093 7.68168 7.2008Z" stroke="black"/>
</svg>
