<svg width="30" height="30" viewBox="0 0 30 30" fill="none" xmlns="http://www.w3.org/2000/svg">
<path d="M24.7864 15C24.7864 14.4328 25.251 13.9682 25.8182 13.9682C26.3853 13.9682 26.85 14.4328 26.85 15V22.0909C26.85 25.2699 24.2699 27.85 21.0909 27.85H6.90909C3.73012 27.85 1.15 25.2699 1.15 22.0909V7.90909C1.15 4.73012 3.73012 2.15 6.90909 2.15H14C14.5672 2.15 15.0318 2.61466 15.0318 3.18182C15.0318 3.74898 14.5672 4.21364 14 4.21364H6.90909C4.87625 4.21364 3.21364 5.87625 3.21364 7.90909V22.0909C3.21364 24.1238 4.87625 25.7864 6.90909 25.7864H21.0909C23.1238 25.7864 24.7864 24.1238 24.7864 22.0909V15Z" fill="white" stroke="#0485C6" stroke-width="0.3"/>
<path d="M17.15 6C17.15 2.77084 19.7708 0.15 23 0.15C26.2292 0.15 28.85 2.77084 28.85 6C28.85 9.22916 26.2292 11.85 23 11.85C19.7708 11.85 17.15 9.22916 17.15 6ZM19.25 6C19.25 8.06284 20.9372 9.75 23 9.75C25.0628 9.75 26.75 8.06284 26.75 6C26.75 3.93716 25.0628 2.25 23 2.25C20.9372 2.25 19.25 3.93716 19.25 6Z" fill="white" stroke="#0485C6" stroke-width="0.3"/>
</svg>
