<svg width="30" height="31" viewBox="0 0 30 31" fill="none" xmlns="http://www.w3.org/2000/svg">
<path d="M11.25 20.8931C12.3125 21.6806 13.6062 22.1431 15 22.1431C16.3938 22.1431 17.6875 21.6806 18.75 20.8931" stroke="white" stroke-width="2" stroke-linecap="round"/>
<path d="M27.0451 17.0906L26.6963 19.5118C26.0876 23.7468 25.7826 25.8631 24.3138 27.1281C22.8451 28.3931 20.6913 28.3931 16.3826 28.3931H13.6176C9.30883 28.3931 7.15508 28.3931 5.68633 27.1281C4.21758 25.8631 3.91258 23.7468 3.30383 19.5118L2.95508 17.0906C2.48008 13.7943 2.24258 12.1456 2.91883 10.7368C3.59508 9.32807 5.03258 8.47057 7.90883 6.75807L9.64008 5.72682C12.2501 4.17057 13.5576 3.39307 15.0001 3.39307C16.4426 3.39307 17.7488 4.17057 20.3601 5.72682L22.0913 6.75807C24.9663 8.47057 26.4051 9.32807 27.0813 10.7368" stroke="white" stroke-width="2" stroke-linecap="round"/>
</svg>
