<svg width="12" height="13" viewBox="0 0 12 13" fill="none" xmlns="http://www.w3.org/2000/svg">
<path d="M6.17493 0.4375C9.38586 0.4375 11.9874 3.03906 11.9874 6.25C11.9874 9.46094 9.38586 12.0625 6.17493 12.0625C2.96399 12.0625 0.362427 9.46094 0.362427 6.25C0.362427 3.03906 2.96399 0.4375 6.17493 0.4375ZM8.33118 7.77344C8.37805 7.72656 8.42493 7.63281 8.42493 7.53906C8.42493 7.42188 8.35461 7.32812 8.2843 7.25781L6.92493 6.25V2.875C6.92493 2.6875 6.73743 2.5 6.54993 2.5H5.79993C5.58899 2.5 5.42493 2.6875 5.42493 2.875V6.53125C5.42493 6.83594 5.54211 7.09375 5.77649 7.25781L7.3468 8.42969C7.39368 8.47656 7.48743 8.52344 7.55774 8.52344C7.69836 8.52344 7.79211 8.45312 7.86243 8.35938L8.33118 7.77344Z" fill="#6C757D"/>
</svg>
