<svg width="396" height="359" viewBox="0 0 396 359" fill="none" xmlns="http://www.w3.org/2000/svg">
<path d="M7.5 37C17.7173 37 26 28.7173 26 18.5C26 8.28273 17.7173 0 7.5 0L0 0L0 37L7.5 37Z" fill="#FF9067" fill-opacity="0.25"/>
<path d="M396 243V274C396 320.944 357.944 359 311 359H231V328C231 281.056 269.056 243 316 243H396Z" fill="#FF9067" fill-opacity="0.25"/>
<path d="M211 359L180 359C133.056 359 95 320.944 95 274L95 53L126 53C172.944 53 211 91.0558 211 138L211 359Z" fill="#52ABD8" fill-opacity="0.25"/>
<path d="M75 235L44 235C19.6995 235 -6.7683e-06 254.699 -5.70609e-06 279L-2.99599e-06 341L31 341C55.3005 341 75 321.301 75 297L75 235Z" fill="#FF9067" fill-opacity="0.25"/>
<path d="M75 120L35 120C15.67 120 6.84959e-07 104.33 1.5299e-06 85L2.92866e-06 53L40 53C59.33 53 75 68.67 75 88L75 120Z" fill="#FF9067" fill-opacity="0.25"/>
<path d="M38.5 146C58.6584 146 75 162.342 75 182.5C75 202.658 58.6584 219 38.5 219H0L0 146H38.5Z" fill="#52ABD8" fill-opacity="0.25"/>
</svg>
