<svg width="359" height="396" viewBox="0 0 359 396" fill="none" xmlns="http://www.w3.org/2000/svg">
<path d="M37 7.5C37 17.7173 28.7173 26 18.5 26C8.28273 26 0 17.7173 0 7.5V0H37V7.5Z" fill="#FF9067" fill-opacity="0.25"/>
<path d="M359 231L328 231C281.056 231 243 269.056 243 316L243 396L274 396C320.944 396 359 357.944 359 311L359 231Z" fill="#FF9067" fill-opacity="0.25"/>
<path d="M359 211L359 180C359 133.056 320.944 95 274 95L53 95L53 126C53 172.944 91.0558 211 138 211L359 211Z" fill="#52ABD8" fill-opacity="0.25"/>
<path d="M235 75L235 44C235 19.6995 254.699 -6.7683e-06 279 -5.70609e-06L341 -2.99599e-06L341 31C341 55.3005 321.301 75 297 75L235 75Z" fill="#FF9067" fill-opacity="0.25"/>
<path d="M120 75L120 35C120 15.67 104.33 6.84959e-07 85 1.5299e-06L53 2.92866e-06L53 40C53 59.33 68.67 75 88 75L120 75Z" fill="#FF9067" fill-opacity="0.25"/>
<path d="M146 38.5C146 58.6584 162.342 75 182.5 75C202.658 75 219 58.6584 219 38.5V0H146V38.5Z" fill="#52ABD8" fill-opacity="0.25"/>
</svg>
