<svg width="10" height="13" viewBox="0 0 10 13" fill="none" xmlns="http://www.w3.org/2000/svg">
<path d="M4.37134 12.0156C0.949463 7.09375 0.340088 6.57812 0.340088 4.75C0.340088 2.26562 2.33228 0.25 4.84009 0.25C7.32446 0.25 9.34009 2.26562 9.34009 4.75C9.34009 6.57812 8.70728 7.09375 5.2854 12.0156C5.07446 12.3438 4.58228 12.3438 4.37134 12.0156ZM4.84009 6.625C5.87134 6.625 6.71509 5.80469 6.71509 4.75C6.71509 3.71875 5.87134 2.875 4.84009 2.875C3.7854 2.875 2.96509 3.71875 2.96509 4.75C2.96509 5.80469 3.7854 6.625 4.84009 6.625Z" fill="#F45D48"/>
</svg>
