<svg width="13" height="13" viewBox="0 0 13 13" fill="none" xmlns="http://www.w3.org/2000/svg">
<path d="M7.26001 1.1875C7.26001 0.8125 7.58813 0.53125 7.9397 0.625C10.4475 1.28125 12.3225 3.55469 12.3225 6.25C12.3225 9.46094 9.72095 12.0625 6.51001 12.0625C3.29907 12.0859 0.69751 9.50781 0.69751 6.29688C0.674072 3.57812 2.52563 1.28125 5.03345 0.625C5.40845 0.53125 5.76001 0.8125 5.76001 1.1875V1.5625C5.76001 1.82031 5.57251 2.03125 5.33813 2.10156C3.51001 2.61719 2.19751 4.28125 2.19751 6.25C2.19751 8.64062 4.11938 10.5625 6.51001 10.5625C8.8772 10.5625 10.8225 8.64062 10.8225 6.25C10.8225 4.28125 9.48657 2.61719 7.65845 2.10156C7.42407 2.03125 7.26001 1.82031 7.26001 1.5625V1.1875Z" fill="#6C757D"/>
</svg>
