<svg width="14" height="14" viewBox="0 0 14 14" fill="none" xmlns="http://www.w3.org/2000/svg">
<path d="M6.72134 7.33953C6.63264 7.33972 6.54587 7.31365 6.47206 7.26463C6.39825 7.2156 6.34072 7.14582 6.30677 7.06416C6.27283 6.98249 6.264 6.89262 6.28141 6.80595C6.29881 6.71927 6.34167 6.63971 6.40454 6.57734L11.3336 1.66579C11.4176 1.58207 11.5316 1.53503 11.6504 1.53503C11.7692 1.53503 11.8832 1.58207 11.9672 1.66579C12.0513 1.74952 12.0985 1.86307 12.0985 1.98147C12.0985 2.09987 12.0513 2.21343 11.9672 2.29715L7.03815 7.2087C6.99659 7.25023 6.94721 7.28316 6.89285 7.30561C6.83848 7.32806 6.7802 7.33959 6.72134 7.33953Z" fill="#575757"/>
<path d="M6.72134 7.33953C6.63264 7.33972 6.54587 7.31365 6.47206 7.26463C6.39825 7.2156 6.34072 7.14582 6.30677 7.06416C6.27283 6.98249 6.264 6.89262 6.28141 6.80595C6.29881 6.71927 6.34167 6.63971 6.40454 6.57734L11.3336 1.66579C11.4176 1.58207 11.5316 1.53503 11.6504 1.53503C11.7692 1.53503 11.8832 1.58207 11.9672 1.66579C12.0513 1.74952 12.0985 1.86307 12.0985 1.98147C12.0985 2.09987 12.0513 2.21343 11.9672 2.29715L7.03815 7.2087C6.99659 7.25023 6.94721 7.28316 6.89285 7.30561C6.83848 7.32806 6.7802 7.33959 6.72134 7.33953Z" stroke="black"/>
<path d="M11.7588 2.44905C11.64 2.45005 11.5256 2.40398 11.4409 2.32095C11.3561 2.23793 11.3079 2.12476 11.3069 2.00634C11.3059 1.88792 11.3522 1.77395 11.4355 1.6895C11.5188 1.60505 11.6324 1.55704 11.7512 1.55604L12.9871 1.53505H12.9947C13.1135 1.53404 13.2279 1.58012 13.3127 1.66314C13.3974 1.74617 13.4456 1.85934 13.4466 1.97776C13.4476 2.09618 13.4014 2.21015 13.3181 2.2946C13.2347 2.37905 13.1212 2.42705 13.0023 2.42806L11.7665 2.44905H11.7588ZM9.85801 4.21408C9.73917 4.21408 9.62519 4.16704 9.54116 4.0833C9.45712 3.99956 9.40991 3.88599 9.40991 3.76757C9.40991 3.64915 9.45712 3.53558 9.54116 3.45185C9.62519 3.36811 9.73917 3.32107 9.85801 3.32107L11.2023 3.32062C11.2611 3.32062 11.3194 3.33217 11.3738 3.35461C11.4281 3.37705 11.4775 3.40994 11.5192 3.4514C11.5608 3.49286 11.5938 3.54209 11.6163 3.59626C11.6388 3.65043 11.6504 3.70849 11.6504 3.76713C11.6504 3.82576 11.6388 3.88382 11.6163 3.938C11.5938 3.99217 11.5608 4.04139 11.5192 4.08285C11.4775 4.12432 11.4281 4.1572 11.3738 4.17964C11.3194 4.20208 11.2611 4.21363 11.2023 4.21363L9.85801 4.21408Z" fill="#575757"/>
<path d="M11.7588 2.44905C11.64 2.45005 11.5256 2.40398 11.4409 2.32095C11.3561 2.23793 11.3079 2.12476 11.3069 2.00634C11.3059 1.88792 11.3522 1.77395 11.4355 1.6895C11.5188 1.60505 11.6324 1.55704 11.7512 1.55604L12.9871 1.53505H12.9947C13.1135 1.53404 13.2279 1.58012 13.3127 1.66314C13.3974 1.74617 13.4456 1.85934 13.4466 1.97776C13.4476 2.09618 13.4014 2.21015 13.3181 2.2946C13.2347 2.37905 13.1212 2.42705 13.0023 2.42806L11.7665 2.44905H11.7588ZM9.85801 4.21408C9.73917 4.21408 9.62519 4.16704 9.54116 4.0833C9.45712 3.99956 9.40991 3.88599 9.40991 3.76757C9.40991 3.64915 9.45712 3.53558 9.54116 3.45185C9.62519 3.36811 9.73917 3.32107 9.85801 3.32107L11.2023 3.32062C11.2611 3.32062 11.3194 3.33217 11.3738 3.35461C11.4281 3.37705 11.4775 3.40994 11.5192 3.4514C11.5608 3.49286 11.5938 3.54209 11.6163 3.59626C11.6388 3.65043 11.6504 3.70849 11.6504 3.76713C11.6504 3.82576 11.6388 3.88382 11.6163 3.938C11.5938 3.99217 11.5608 4.04139 11.5192 4.08285C11.4775 4.12432 11.4281 4.1572 11.3738 4.17964C11.3194 4.20208 11.2611 4.21363 11.2023 4.21363L9.85801 4.21408Z" stroke="black"/>
<path d="M11.6296 2.31997H11.622C11.5631 2.31898 11.505 2.30645 11.451 2.28309C11.3971 2.25974 11.3482 2.22601 11.3073 2.18384C11.2664 2.14167 11.2342 2.09189 11.2126 2.03733C11.1911 1.98277 11.1805 1.92451 11.1815 1.86587L11.2025 0.634413C11.2035 0.575777 11.2161 0.517912 11.2396 0.464121C11.263 0.41033 11.2968 0.361667 11.3392 0.32091C11.3815 0.280153 11.4314 0.2481 11.4862 0.226582C11.5409 0.205064 11.5994 0.194502 11.6582 0.195499C11.7171 0.196496 11.7752 0.209032 11.8291 0.232392C11.8831 0.255752 11.932 0.289478 11.9729 0.331645C12.0138 0.373811 12.0459 0.423593 12.0675 0.478147C12.0891 0.532701 12.0997 0.590958 12.0987 0.649594L12.0777 1.88105C12.0757 1.99815 12.0276 2.10978 11.9438 2.19188C11.8599 2.27399 11.7471 2.31999 11.6296 2.31997ZM9.85824 4.21404H9.85241C9.79356 4.21328 9.73544 4.20098 9.68137 4.17784C9.62729 4.1547 9.57832 4.12117 9.53725 4.07917C9.49618 4.03717 9.46382 3.98752 9.44201 3.93305C9.4202 3.87858 9.40937 3.82037 9.41014 3.76173L9.4312 2.08377C9.43273 1.96636 9.48062 1.85427 9.56448 1.77179C9.64835 1.6893 9.76146 1.64306 9.8793 1.64307H9.88512C9.94397 1.64382 10.0021 1.65613 10.0562 1.67927C10.1102 1.70241 10.1592 1.73594 10.2003 1.77794C10.2413 1.81994 10.2737 1.86959 10.2955 1.92406C10.3173 1.97853 10.3282 2.03674 10.3274 2.09538L10.3063 3.77334C10.3048 3.89075 10.2569 4.00284 10.173 4.08532C10.0892 4.16781 9.97608 4.21405 9.85824 4.21404ZM6.72155 9.5721C5.23879 9.5721 4.03296 8.37055 4.03296 6.89307C4.03296 5.41559 5.23879 4.21404 6.72155 4.21404C6.84039 4.21404 6.95437 4.26108 7.0384 4.34482C7.12244 4.42856 7.16965 4.54213 7.16965 4.66055C7.16965 4.77897 7.12244 4.89254 7.0384 4.97627C6.95437 5.06001 6.84039 5.10705 6.72155 5.10705C5.73304 5.10705 4.92916 5.90808 4.92916 6.89307C4.92916 7.87806 5.73304 8.67909 6.72155 8.67909C7.71005 8.67909 8.51394 7.87806 8.51394 6.89307C8.51394 6.77465 8.56115 6.66108 8.64519 6.57734C8.72922 6.49361 8.8432 6.44656 8.96204 6.44656C9.08088 6.44656 9.19486 6.49361 9.27889 6.57734C9.36293 6.66108 9.41014 6.77465 9.41014 6.89307C9.41014 8.37055 8.20431 9.5721 6.72155 9.5721Z" fill="#575757"/>
<path d="M11.6296 2.31997H11.622C11.5631 2.31898 11.505 2.30645 11.451 2.28309C11.3971 2.25974 11.3482 2.22601 11.3073 2.18384C11.2664 2.14167 11.2342 2.09189 11.2126 2.03733C11.1911 1.98277 11.1805 1.92451 11.1815 1.86587L11.2025 0.634413C11.2035 0.575777 11.2161 0.517912 11.2396 0.464121C11.263 0.41033 11.2968 0.361667 11.3392 0.32091C11.3815 0.280153 11.4314 0.2481 11.4862 0.226582C11.5409 0.205064 11.5994 0.194502 11.6582 0.195499C11.7171 0.196496 11.7752 0.209032 11.8291 0.232392C11.8831 0.255752 11.932 0.289478 11.9729 0.331645C12.0138 0.373811 12.0459 0.423593 12.0675 0.478147C12.0891 0.532701 12.0997 0.590958 12.0987 0.649594L12.0777 1.88105C12.0757 1.99815 12.0276 2.10978 11.9438 2.19188C11.8599 2.27399 11.7471 2.31999 11.6296 2.31997ZM9.85824 4.21404H9.85241C9.79356 4.21328 9.73544 4.20098 9.68137 4.17784C9.62729 4.1547 9.57832 4.12117 9.53725 4.07917C9.49618 4.03717 9.46382 3.98752 9.44201 3.93305C9.4202 3.87858 9.40937 3.82037 9.41014 3.76173L9.4312 2.08377C9.43273 1.96636 9.48062 1.85427 9.56448 1.77179C9.64835 1.6893 9.76146 1.64306 9.8793 1.64307H9.88512C9.94397 1.64382 10.0021 1.65613 10.0562 1.67927C10.1102 1.70241 10.1592 1.73594 10.2003 1.77794C10.2413 1.81994 10.2737 1.86959 10.2955 1.92406C10.3173 1.97853 10.3282 2.03674 10.3274 2.09538L10.3063 3.77334C10.3048 3.89075 10.2569 4.00284 10.173 4.08532C10.0892 4.16781 9.97608 4.21405 9.85824 4.21404ZM6.72155 9.5721C5.23879 9.5721 4.03296 8.37055 4.03296 6.89307C4.03296 5.41559 5.23879 4.21404 6.72155 4.21404C6.84039 4.21404 6.95437 4.26108 7.0384 4.34482C7.12244 4.42856 7.16965 4.54213 7.16965 4.66055C7.16965 4.77897 7.12244 4.89254 7.0384 4.97627C6.95437 5.06001 6.84039 5.10705 6.72155 5.10705C5.73304 5.10705 4.92916 5.90808 4.92916 6.89307C4.92916 7.87806 5.73304 8.67909 6.72155 8.67909C7.71005 8.67909 8.51394 7.87806 8.51394 6.89307C8.51394 6.77465 8.56115 6.66108 8.64519 6.57734C8.72922 6.49361 8.8432 6.44656 8.96204 6.44656C9.08088 6.44656 9.19486 6.49361 9.27889 6.57734C9.36293 6.66108 9.41014 6.77465 9.41014 6.89307C9.41014 8.37055 8.20431 9.5721 6.72155 9.5721Z" stroke="black"/>
<path d="M6.72147 13.5907C3.01525 13.5907 0 10.5862 0 6.89313C0 3.20009 3.01525 0.195557 6.72147 0.195557C7.3716 0.19537 8.01833 0.288915 8.64157 0.473283C8.69795 0.489994 8.75046 0.517606 8.79613 0.554541C8.84179 0.591477 8.87971 0.637013 8.90771 0.68855C8.93572 0.740087 8.95326 0.796616 8.95934 0.854908C8.96542 0.9132 8.95991 0.972115 8.94314 1.02829C8.92637 1.08446 8.89866 1.13679 8.86159 1.18229C8.82453 1.2278 8.77883 1.26558 8.72711 1.29348C8.67539 1.32139 8.61866 1.33887 8.56016 1.34492C8.50166 1.35098 8.44253 1.3455 8.38616 1.32879C7.84573 1.16942 7.28507 1.08851 6.72147 1.08857C3.5095 1.08857 0.896196 3.69258 0.896196 6.89313C0.896196 10.0937 3.5095 12.6977 6.72147 12.6977C9.93344 12.6977 12.5467 10.0937 12.5467 6.89313C12.5465 6.33156 12.4653 5.77293 12.3057 5.23436C12.2889 5.17819 12.2834 5.11927 12.2895 5.06098C12.2956 5.00269 12.3131 4.94616 12.3411 4.89462C12.3691 4.84309 12.407 4.79755 12.4527 4.76062C12.4983 4.72368 12.5509 4.69607 12.6072 4.67936C12.6636 4.66265 12.7227 4.65716 12.7812 4.66322C12.8397 4.66928 12.8965 4.68676 12.9482 4.71466C12.9999 4.74256 13.0456 4.78035 13.0827 4.82585C13.1197 4.87135 13.1475 4.92368 13.1642 4.97985C13.3491 5.60092 13.4429 6.24533 13.4429 6.89313C13.4429 10.5862 10.4277 13.5907 6.72147 13.5907Z" fill="#575757"/>
<path d="M6.72147 13.5907C3.01525 13.5907 0 10.5862 0 6.89313C0 3.20009 3.01525 0.195557 6.72147 0.195557C7.3716 0.19537 8.01833 0.288915 8.64157 0.473283C8.69795 0.489994 8.75046 0.517606 8.79613 0.554541C8.84179 0.591477 8.87971 0.637013 8.90771 0.68855C8.93572 0.740087 8.95326 0.796616 8.95934 0.854908C8.96542 0.9132 8.95991 0.972115 8.94314 1.02829C8.92637 1.08446 8.89866 1.13679 8.86159 1.18229C8.82453 1.2278 8.77883 1.26558 8.72711 1.29348C8.67539 1.32139 8.61866 1.33887 8.56016 1.34492C8.50166 1.35098 8.44253 1.3455 8.38616 1.32879C7.84573 1.16942 7.28507 1.08851 6.72147 1.08857C3.5095 1.08857 0.896196 3.69258 0.896196 6.89313C0.896196 10.0937 3.5095 12.6977 6.72147 12.6977C9.93344 12.6977 12.5467 10.0937 12.5467 6.89313C12.5465 6.33156 12.4653 5.77293 12.3057 5.23436C12.2889 5.17819 12.2834 5.11927 12.2895 5.06098C12.2956 5.00269 12.3131 4.94616 12.3411 4.89462C12.3691 4.84309 12.407 4.79755 12.4527 4.76062C12.4983 4.72368 12.5509 4.69607 12.6072 4.67936C12.6636 4.66265 12.7227 4.65716 12.7812 4.66322C12.8397 4.66928 12.8965 4.68676 12.9482 4.71466C12.9999 4.74256 13.0456 4.78035 13.0827 4.82585C13.1197 4.87135 13.1475 4.92368 13.1642 4.97985C13.3491 5.60092 13.4429 6.24533 13.4429 6.89313C13.4429 10.5862 10.4277 13.5907 6.72147 13.5907Z" stroke="black"/>
</svg>
