<svg width="150" height="31" viewBox="0 0 150 31" fill="none" xmlns="http://www.w3.org/2000/svg">
<path d="M30.7944 21.6726C32.0885 20.9998 32.8129 19.7316 32.8129 18.6159V13.7472C32.8129 12.1415 32.4238 10.6927 30.7944 10.4584V9.68243C32.7892 9.52766 35.4289 8.80112 36.983 7.87036L37.5526 8.25943L37.5268 18.6159C37.5268 19.7294 38.2276 21.0234 39.4958 21.6726V22.4486H30.7944V21.6726Z" fill="#231F20"/>
<path d="M41.8774 18.616V13.7473C41.8774 12.1415 41.4883 10.6928 39.8568 10.4585V9.68247C41.8516 9.5277 44.4913 8.80115 46.0454 7.8704L46.615 8.25947V9.5019C47.8317 8.38844 49.5943 7.8446 51.1979 7.8446C53.8139 7.8446 56.1956 9.06125 56.1956 11.9868V18.616C56.1956 19.8842 57.0489 21.1009 58.1624 21.6726V22.4486H49.461V21.6726C50.5745 21.103 51.4816 19.9122 51.4816 18.616V12.9971C51.4816 11.2108 50.8604 9.75985 48.8656 9.75985C47.8037 9.75985 47.3631 10.0436 46.6129 10.7443L46.5871 18.616C46.5871 19.7295 47.2857 21.0235 48.5539 21.6726V22.4486H39.8525V21.6726C41.1466 20.9998 41.8731 19.7316 41.8731 18.616H41.8774Z" fill="#231F20"/>
<path d="M58.9406 3.39079V2.61481C60.9074 2.53742 63.575 1.73349 65.1291 0.802734L65.6988 1.1918L65.673 15.6153L68.7533 12.1459C69.8925 10.8519 69.8667 10.8003 68.7791 10.437V9.66102H74.9676V10.437C73.493 10.7487 70.8233 11.6794 70.0473 12.4576L73.2587 18.5945C74.4496 20.8989 74.7333 21.2105 75.8984 21.6748V22.4508H68.5963V21.6748C69.295 20.9504 69.3981 20.1981 68.8801 19.1362L67.1196 15.5121L65.6708 17.0146V18.6203C65.6708 19.7338 66.3694 21.0278 67.6377 21.677V22.453H58.9363V21.677C60.2303 21.0042 60.9547 19.736 60.9547 18.6203V7.40829C60.9547 5.80258 60.5656 3.62724 58.9363 3.39509L58.9406 3.39079Z" fill="#231F20"/>
<path d="M84.7286 9.65664V10.4326C83.2003 10.9765 83.1745 11.4945 83.6668 12.3737L86.8008 17.9926L88.9246 13.1497L88.3807 12.0878C87.8369 11.0259 87.1125 10.9485 85.6873 10.4305V9.6545H94.5177V10.4305C92.9893 10.9743 92.9636 11.4924 93.4558 12.3715L96.5898 17.9904L98.8426 12.8638C99.5154 11.3096 98.9199 10.8948 97.5485 10.4305V9.6545H103.814V10.4305C102.389 10.6626 100.966 10.9227 99.8271 13.3302L95.528 22.4443H93.7159L89.5479 14.3663L85.7411 22.4443H83.929L78.596 12.0856C78.0521 11.0238 77.3277 10.9464 75.9026 10.4283V9.65234H84.7329L84.7286 9.65664Z" fill="#231F20"/>
<path d="M106.697 18.616V13.7473C106.697 12.1416 106.308 10.6928 104.679 10.4585V9.68252C106.673 9.52776 109.313 8.80121 110.867 7.87046L111.437 8.25952L111.411 18.616C111.411 19.7295 112.11 21.0235 113.378 21.6727V22.4487H104.677V21.6727C105.971 20.9999 106.695 19.7317 106.695 18.616H106.697ZM108.225 7.56092C106.774 7.56092 105.195 6.57643 105.609 4.63539C106.385 1.06284 110.399 0.0267554 113.326 0.000960845C117.548 -0.0506283 120.603 1.9678 120.603 7.84681V9.50411C121.819 8.39065 123.58 7.84681 125.185 7.84681C127.801 7.84681 130.183 9.06346 130.183 11.989V18.6182C130.183 19.8864 131.036 21.1031 132.15 21.6749V22.4508H123.449V21.6749C124.562 21.1052 125.467 19.9144 125.467 18.6182V12.9993C125.467 11.213 124.846 9.76206 122.853 9.76206C121.791 9.76206 121.351 10.0458 120.6 10.7466L120.575 18.6182C120.575 19.7317 121.275 21.0257 122.544 21.6749V22.4508H113.842V21.6749C115.136 21.002 115.861 19.7338 115.861 18.6182V13.7495C115.861 12.1438 115.472 10.695 113.842 10.4607V9.68468C116.275 9.63309 119.124 9.50411 119.175 6.16371C119.201 3.31556 117.129 1.19181 114.257 1.29499C111.383 1.42396 110.605 3.67669 110.373 6.0326C110.27 7.04288 109.285 7.56092 108.223 7.56092H108.225Z" fill="#231F20"/>
<path d="M132.979 26.8251C132.979 25.1678 134.299 24.5982 135.464 24.5982C136.397 24.5982 137.251 24.9593 137.251 25.3999C137.251 27.9128 137.975 29.3358 140.954 29.3358C142.145 29.3358 143.777 28.8693 143.906 27.4979C144.009 26.3586 143.052 25.7374 141.939 25.5053C139.531 25.0388 133.394 24.7551 133.394 21.7758V21.0256C134.248 20.5849 135.492 19.7574 136.139 18.8245C134.508 17.9431 133.343 16.417 133.343 13.9042C133.343 9.57926 137.072 7.84458 140.438 7.84458C141.732 7.84458 142.949 8.07673 144.011 8.54318C144.372 5.48867 146.289 4.11511 147.895 4.21829C150.898 4.37306 150.457 8.28308 148.024 8.28308C147.74 8.28308 147.455 8.2315 147.143 8.12832C146.885 8.05093 146.651 7.99934 146.418 7.99934C145.746 7.99934 145.253 8.38841 145.045 9.1386C146.519 10.1489 147.478 11.7546 147.478 13.9557C147.478 18.3064 143.802 19.781 140.434 19.781C139.321 19.781 138.156 19.6262 137.119 19.263C136.784 19.4177 136.498 19.7036 136.576 20.0648C136.836 21.075 142.117 20.0905 145.458 21.4104C148.097 22.4465 148.617 25.4494 147.166 27.6505C145.821 29.6711 142.945 30.3955 140.099 30.3955C137.82 30.3955 132.977 29.8517 132.977 26.8229L132.979 26.8251ZM138.261 13.8784C138.261 16.1827 138.805 18.7471 140.436 18.7471C142.068 18.7471 142.56 16.0021 142.56 13.8784C142.56 11.3677 141.99 8.88066 140.436 8.88066C138.882 8.88066 138.261 11.3655 138.261 13.8784Z" fill="#231F20"/>
<path d="M34.1262 1.38098C33.7372 1.38098 33.3244 1.43257 32.858 1.56155C28.4815 2.70081 26.8522 8.6572 25.1949 12.4361L23.2947 16.7589L19.0837 6.73121C18.7204 5.85205 19.0321 3.98623 20.5088 3.4166C20.5346 3.39081 20.5862 3.39081 20.612 3.39081V2.61483H11.0573V3.39081C12.4824 3.90885 13.31 5.41139 13.7507 6.44747L15.0189 9.50197L12.2481 16.7782L8.02856 6.73121C7.66529 5.85205 7.97697 3.93465 9.50315 3.39081V2.61483H0V3.39081C1.42515 3.90885 2.25273 5.41139 2.69338 6.44747L9.34838 22.4487H11.1605L15.6143 10.9529L20.4035 22.4487H22.2156L24.6919 16.0645L26.2825 12.6962C27.4992 10.1318 28.7158 7.25785 31.4092 6.37868C31.9014 6.19812 32.3421 6.14653 32.7032 6.14653C33.4814 6.14653 34.0488 6.37868 34.569 6.35289C37.6751 6.09494 37.6751 1.38098 34.1284 1.38098H34.1262Z" fill="#231F20"/>
</svg>
